<svg width="203" height="28" viewBox="0 0 203 28" fill="none" xmlns="http://www.w3.org/2000/svg">
<g clip-path="url(#clip0_435_257377)">
<path d="M22.1595 3.1948C20.8678 1.73163 19.2691 1 17.3646 1C15.4425 1 13.6914 1.92386 12.1093 3.77044L12 3.88916L11.8907 3.77044C10.3086 1.92386 8.55753 1 6.63541 1C4.7309 1 3.13223 1.73163 1.84046 3.1948C0.613861 4.60968 0 6.2827 0 8.21166C0 11.0743 0.847941 13.9447 2.54262 16.8228C4.17332 19.6207 6.22359 21.832 8.69445 23.4566C9.03338 23.6807 9.5501 23.9784 10.2446 24.3486C11.0836 24.7825 11.8057 25 12 25C12.1943 25 12.9164 24.7825 13.7554 24.3486C14.4499 23.9784 14.9666 23.6807 15.3055 23.4566C17.7764 21.832 19.8267 19.6207 21.4574 16.8228C23.1521 13.9447 24 11.0743 24 8.21166C24 6.2827 23.3861 4.60968 22.1595 3.1948Z" fill="#BE1D2C"/>
<path d="M16.5975 6.77065H14.9413C14.8868 6.77065 14.8426 6.81464 14.8426 6.86893V11.6433C14.8426 11.6705 14.8315 11.695 14.8136 11.7128C14.7854 11.741 14.7504 11.7416 14.7438 11.7416C13.6055 12.2216 12.5929 12.2962 12.0002 12.2962C10.7868 12.2962 9.83905 11.9839 9.28835 11.7547C9.2889 11.7541 9.29008 11.7528 9.28999 11.7528C9.25177 11.7354 9.21508 11.7173 9.17776 11.6996C9.16608 11.6834 9.15781 11.6647 9.15781 11.6433V6.76037H9.15587C9.11623 4.7656 7.20389 4.53856 6.05287 4.83376C4.63981 5.19618 3.46149 7.03323 4.21569 8.97442C4.21572 8.97442 4.21572 8.9744 4.21572 8.97439L4.21569 8.97442C4.40668 9.52369 4.79153 10.4061 5.56777 11.2793C6.15976 11.9452 6.78911 12.3916 7.30407 12.6855V18.9682C7.30407 19.0225 7.3483 19.0665 7.40286 19.0665H9.05902C9.11358 19.0665 9.15781 19.0225 9.15781 18.9682V13.6843C9.15781 13.6571 9.1689 13.6326 9.18676 13.6148C9.21503 13.5867 9.24999 13.586 9.25661 13.586C9.7926 13.8171 10.7064 14.1311 11.8778 14.1517C13.1793 14.1747 14.1894 13.8248 14.7438 13.586C14.7984 13.586 14.8426 13.63 14.8426 13.6843V18.9682C14.8426 19.0225 14.8868 19.0665 14.9414 19.0665H16.5976C16.6521 19.0665 16.6964 19.0225 16.6964 18.9682V6.86893C16.6964 6.81464 16.6521 6.77065 16.5976 6.77065H16.5975ZM7.02522 10.1152C6.19901 9.21836 5.7899 8.30484 5.58918 7.74724C5.41181 7.19779 5.711 6.96618 5.93962 6.94798C6.21257 6.92649 6.29106 7.11843 6.45151 7.64985C6.45372 7.65715 6.4648 7.6543 6.46358 7.64677C6.41594 7.3585 6.39242 6.85113 6.67677 6.6749C6.85323 6.56555 7.06815 6.5654 7.19389 6.70835C7.21772 6.73545 7.30399 6.82068 7.30399 7.01467C7.30399 7.01471 7.30403 7.01476 7.30403 7.0148V10.4007C7.19773 10.2978 7.10449 10.2013 7.02521 10.1152L7.02522 10.1152Z" fill="white"/>
</g>
<path d="M33.75 22V4.5H39.65C41.5 4.5 43.0667 4.88333 44.35 5.65C45.6333 6.4 46.6083 7.43333 47.275 8.75C47.9417 10.05 48.275 11.5417 48.275 13.225C48.275 14.925 47.9417 16.4333 47.275 17.75C46.6083 19.0667 45.6333 20.1083 44.35 20.875C43.0667 21.625 41.5 22 39.65 22H33.75ZM36.475 19.575H39.65C40.9833 19.575 42.075 19.2917 42.925 18.725C43.775 18.1417 44.4 17.375 44.8 16.425C45.2167 15.4583 45.425 14.3917 45.425 13.225C45.425 12.075 45.2167 11.025 44.8 10.075C44.4 9.10833 43.775 8.34167 42.925 7.775C42.075 7.20833 40.9833 6.925 39.65 6.925H36.475V19.575ZM56.6566 22.4C55.2066 22.4 53.9483 22.0917 52.8816 21.475C51.815 20.8417 50.9816 19.9667 50.3816 18.85C49.7983 17.7333 49.5066 16.4583 49.5066 15.025C49.5066 13.575 49.7983 12.2917 50.3816 11.175C50.9816 10.0583 51.815 9.18333 52.8816 8.55C53.9483 7.91667 55.2066 7.6 56.6566 7.6C57.6066 7.6 58.4983 7.78333 59.3316 8.15C60.165 8.51667 60.8816 9.05833 61.4816 9.775C62.0816 10.4917 62.5233 11.3667 62.8066 12.4C63.09 13.4167 63.165 14.5833 63.0316 15.9H51.0316V13.65H61.5316L60.4066 14.425C60.4566 13.625 60.34 12.9 60.0566 12.25C59.7733 11.5833 59.3483 11.05 58.7816 10.65C58.215 10.25 57.5066 10.05 56.6566 10.05C55.6733 10.05 54.8566 10.2667 54.2066 10.7C53.5566 11.1333 53.065 11.725 52.7316 12.475C52.415 13.225 52.2566 14.075 52.2566 15.025C52.2566 15.9583 52.415 16.8 52.7316 17.55C53.065 18.3 53.5566 18.8917 54.2066 19.325C54.8566 19.7417 55.6733 19.95 56.6566 19.95C57.64 19.95 58.415 19.725 58.9816 19.275C59.565 18.8083 59.965 18.2417 60.1816 17.575H63.0316C62.815 18.5417 62.415 19.3833 61.8316 20.1C61.265 20.8167 60.54 21.3833 59.6566 21.8C58.79 22.2 57.79 22.4 56.6566 22.4ZM67.1723 17.575C67.2556 18.425 67.6139 19.0583 68.2473 19.475C68.8973 19.8917 69.6723 20.1 70.5723 20.1C71.4723 20.1 72.1889 19.9333 72.7223 19.6C73.2723 19.2667 73.5473 18.7417 73.5473 18.025C73.5473 17.5917 73.3806 17.2667 73.0473 17.05C72.7306 16.8167 72.3056 16.6333 71.7723 16.5C71.2556 16.3667 70.6806 16.25 70.0473 16.15C69.4306 16.05 68.8056 15.925 68.1723 15.775C67.5389 15.625 66.9556 15.4083 66.4223 15.125C65.9056 14.825 65.4889 14.425 65.1723 13.925C64.8556 13.425 64.6973 12.775 64.6973 11.975C64.6973 11.225 64.9306 10.5167 65.3973 9.85C65.8639 9.16667 66.5223 8.625 67.3723 8.225C68.2389 7.80833 69.2389 7.6 70.3723 7.6C71.3889 7.6 72.3223 7.80833 73.1723 8.225C74.0223 8.625 74.6973 9.18333 75.1973 9.9C75.7139 10.6167 75.9723 11.45 75.9723 12.4H73.4223C73.3556 11.55 73.0223 10.925 72.4223 10.525C71.8389 10.1083 71.1223 9.9 70.2723 9.9C69.3056 9.9 68.5723 10.1 68.0723 10.5C67.5889 10.8833 67.3473 11.375 67.3473 11.975C67.3473 12.4417 67.5056 12.8 67.8223 13.05C68.1556 13.3 68.5806 13.4917 69.0973 13.625C69.6306 13.7583 70.2139 13.875 70.8473 13.975C71.4806 14.075 72.1056 14.2 72.7223 14.35C73.3556 14.5 73.9306 14.7167 74.4473 15C74.9806 15.2667 75.4056 15.6417 75.7223 16.125C76.0389 16.6083 76.1973 17.2417 76.1973 18.025C76.1973 18.9083 75.9639 19.6833 75.4973 20.35C75.0306 21 74.3639 21.5083 73.4973 21.875C72.6473 22.225 71.6306 22.4 70.4473 22.4C69.3473 22.4 68.3556 22.1917 67.4723 21.775C66.5889 21.3417 65.8806 20.7667 65.3473 20.05C64.8306 19.3167 64.5556 18.4917 64.5223 17.575H67.1723ZM78.1145 8H80.8145V22H78.1145V8ZM77.9645 3.25H80.9645V6.325H77.9645V3.25ZM88.915 21.9C87.6317 21.9 86.515 21.6083 85.565 21.025C84.6317 20.4417 83.9067 19.6167 83.39 18.55C82.8734 17.4667 82.615 16.2083 82.615 14.775C82.615 13.325 82.8734 12.0667 83.39 11C83.9067 9.91667 84.6317 9.08333 85.565 8.5C86.515 7.9 87.6317 7.6 88.915 7.6C90.6317 7.6 91.9317 8.11667 92.815 9.15C93.6984 10.1667 94.24 11.575 94.44 13.375L94.39 16.225C94.29 17.3417 94.04 18.325 93.64 19.175C93.24 20.025 92.6567 20.6917 91.89 21.175C91.1234 21.6583 90.1317 21.9 88.915 21.9ZM89.89 27.4C88.4067 27.4 87.2067 27.1667 86.29 26.7C85.39 26.2333 84.7067 25.625 84.24 24.875C83.7734 24.1417 83.4734 23.3833 83.34 22.6H86.115C86.2817 23.4167 86.69 24.0083 87.34 24.375C87.99 24.7583 88.84 24.95 89.89 24.95C90.6067 24.95 91.2234 24.825 91.74 24.575C92.2734 24.325 92.6817 23.925 92.965 23.375C93.265 22.8417 93.415 22.1333 93.415 21.25H96.09C96.09 22.5667 95.8234 23.6833 95.29 24.6C94.7567 25.5167 94.0234 26.2083 93.09 26.675C92.1734 27.1583 91.1067 27.4 89.89 27.4ZM89.265 19.45C90.665 19.45 91.7067 19.025 92.39 18.175C93.0734 17.325 93.415 16.1917 93.415 14.775C93.415 13.3417 93.0734 12.2 92.39 11.35C91.7067 10.4833 90.665 10.05 89.265 10.05C88.065 10.05 87.115 10.4667 86.415 11.3C85.715 12.1167 85.365 13.275 85.365 14.775C85.365 16.2583 85.715 17.4083 86.415 18.225C87.115 19.0417 88.065 19.45 89.265 19.45ZM93.415 21.25V8H96.09V21.25H93.415ZM98.351 8H101.026V10.3C101.226 9.83333 101.518 9.4 101.901 9C102.284 8.58333 102.784 8.25 103.401 8C104.018 7.73333 104.768 7.6 105.651 7.6C106.551 7.6 107.351 7.78333 108.051 8.15C108.768 8.51667 109.326 9.125 109.726 9.975C110.143 10.8083 110.351 11.9417 110.351 13.375V22H107.676V13.7C107.676 12.9333 107.601 12.275 107.451 11.725C107.301 11.1583 107.026 10.725 106.626 10.425C106.226 10.1083 105.668 9.95 104.951 9.95C104.284 9.95 103.651 10.1417 103.051 10.525C102.451 10.9083 101.959 11.475 101.576 12.225C101.209 12.975 101.026 13.9083 101.026 15.025V22H98.351V8ZM120.046 16.425C120.113 17.1417 120.338 17.7583 120.721 18.275C121.121 18.7917 121.638 19.1833 122.271 19.45C122.921 19.7167 123.654 19.85 124.471 19.85C125.638 19.85 126.579 19.6333 127.296 19.2C128.029 18.75 128.396 18.1083 128.396 17.275C128.396 16.7083 128.196 16.2667 127.796 15.95C127.396 15.6333 126.863 15.3833 126.196 15.2C125.546 15.0167 124.829 14.85 124.046 14.7C123.263 14.5333 122.471 14.35 121.671 14.15C120.888 13.9333 120.163 13.6417 119.496 13.275C118.846 12.8917 118.321 12.3833 117.921 11.75C117.521 11.1 117.321 10.2667 117.321 9.25C117.321 8.28333 117.604 7.41667 118.171 6.65C118.754 5.86667 119.563 5.25 120.596 4.8C121.629 4.33333 122.838 4.1 124.221 4.1C125.488 4.1 126.629 4.35833 127.646 4.875C128.679 5.375 129.496 6.075 130.096 6.975C130.696 7.85833 130.996 8.88333 130.996 10.05H128.071C128.004 8.96667 127.646 8.13333 126.996 7.55C126.363 6.95 125.396 6.65 124.096 6.65C122.796 6.65 121.813 6.89167 121.146 7.375C120.496 7.84167 120.171 8.46667 120.171 9.25C120.171 9.86667 120.371 10.35 120.771 10.7C121.171 11.0333 121.696 11.3 122.346 11.5C123.013 11.6833 123.738 11.85 124.521 12C125.321 12.1333 126.113 12.3083 126.896 12.525C127.679 12.725 128.396 13.0083 129.046 13.375C129.713 13.725 130.246 14.2167 130.646 14.85C131.063 15.4667 131.271 16.275 131.271 17.275C131.271 18.9083 130.654 20.175 129.421 21.075C128.204 21.9583 126.504 22.4 124.321 22.4C122.971 22.4 121.754 22.1417 120.671 21.625C119.604 21.0917 118.754 20.375 118.121 19.475C117.504 18.575 117.171 17.5583 117.121 16.425H120.046ZM133.499 27V24.7H135.124C135.724 24.7 136.183 24.575 136.499 24.325C136.816 24.0917 137.066 23.7667 137.249 23.35C137.449 22.95 137.633 22.4833 137.799 21.95L142.074 8H144.974L140.474 22C140.208 22.8667 139.924 23.6083 139.624 24.225C139.341 24.8583 139.008 25.375 138.624 25.775C138.258 26.1917 137.791 26.5 137.224 26.7C136.674 26.9 135.983 27 135.149 27H133.499ZM136.724 22L132.224 8H135.124L139.274 22H136.724ZM148.136 17.575C148.219 18.425 148.578 19.0583 149.211 19.475C149.861 19.8917 150.636 20.1 151.536 20.1C152.436 20.1 153.153 19.9333 153.686 19.6C154.236 19.2667 154.511 18.7417 154.511 18.025C154.511 17.5917 154.344 17.2667 154.011 17.05C153.694 16.8167 153.269 16.6333 152.736 16.5C152.219 16.3667 151.644 16.25 151.011 16.15C150.394 16.05 149.769 15.925 149.136 15.775C148.503 15.625 147.919 15.4083 147.386 15.125C146.869 14.825 146.453 14.425 146.136 13.925C145.819 13.425 145.661 12.775 145.661 11.975C145.661 11.225 145.894 10.5167 146.361 9.85C146.828 9.16667 147.486 8.625 148.336 8.225C149.203 7.80833 150.203 7.6 151.336 7.6C152.353 7.6 153.286 7.80833 154.136 8.225C154.986 8.625 155.661 9.18333 156.161 9.9C156.678 10.6167 156.936 11.45 156.936 12.4H154.386C154.319 11.55 153.986 10.925 153.386 10.525C152.803 10.1083 152.086 9.9 151.236 9.9C150.269 9.9 149.536 10.1 149.036 10.5C148.553 10.8833 148.311 11.375 148.311 11.975C148.311 12.4417 148.469 12.8 148.786 13.05C149.119 13.3 149.544 13.4917 150.061 13.625C150.594 13.7583 151.178 13.875 151.811 13.975C152.444 14.075 153.069 14.2 153.686 14.35C154.319 14.5 154.894 14.7167 155.411 15C155.944 15.2667 156.369 15.6417 156.686 16.125C157.003 16.6083 157.161 17.2417 157.161 18.025C157.161 18.9083 156.928 19.6833 156.461 20.35C155.994 21 155.328 21.5083 154.461 21.875C153.611 22.225 152.594 22.4 151.411 22.4C150.311 22.4 149.319 22.1917 148.436 21.775C147.553 21.3417 146.844 20.7667 146.311 20.05C145.794 19.3167 145.519 18.4917 145.486 17.575H148.136ZM158.034 8H165.409V10.3H158.034V8ZM160.134 4.5H162.809V18.2C162.809 18.7167 162.934 19.1 163.184 19.35C163.434 19.5833 163.8 19.7 164.284 19.7H165.809V22H164.259C162.892 22 161.859 21.6667 161.159 21C160.475 20.3167 160.134 19.3833 160.134 18.2V4.5ZM173.61 22.4C172.16 22.4 170.901 22.0917 169.835 21.475C168.768 20.8417 167.935 19.9667 167.335 18.85C166.751 17.7333 166.46 16.4583 166.46 15.025C166.46 13.575 166.751 12.2917 167.335 11.175C167.935 10.0583 168.768 9.18333 169.835 8.55C170.901 7.91667 172.16 7.6 173.61 7.6C174.56 7.6 175.451 7.78333 176.285 8.15C177.118 8.51667 177.835 9.05833 178.435 9.775C179.035 10.4917 179.476 11.3667 179.76 12.4C180.043 13.4167 180.118 14.5833 179.985 15.9H167.985V13.65H178.485L177.36 14.425C177.41 13.625 177.293 12.9 177.01 12.25C176.726 11.5833 176.301 11.05 175.735 10.65C175.168 10.25 174.46 10.05 173.61 10.05C172.626 10.05 171.81 10.2667 171.16 10.7C170.51 11.1333 170.018 11.725 169.685 12.475C169.368 13.225 169.21 14.075 169.21 15.025C169.21 15.9583 169.368 16.8 169.685 17.55C170.018 18.3 170.51 18.8917 171.16 19.325C171.81 19.7417 172.626 19.95 173.61 19.95C174.593 19.95 175.368 19.725 175.935 19.275C176.518 18.8083 176.918 18.2417 177.135 17.575H179.985C179.768 18.5417 179.368 19.3833 178.785 20.1C178.218 20.8167 177.493 21.3833 176.61 21.8C175.743 22.2 174.743 22.4 173.61 22.4ZM181.781 8H184.456V22H181.781V8ZM184.456 15.025L184.056 12.275C184.056 11.8417 184.131 11.3583 184.281 10.825C184.431 10.2917 184.672 9.78333 185.006 9.3C185.356 8.8 185.814 8.39167 186.381 8.075C186.964 7.75833 187.697 7.6 188.581 7.6C189.447 7.6 190.206 7.78333 190.856 8.15C191.506 8.51667 192.006 9.125 192.356 9.975C192.722 10.8083 192.906 11.9417 192.906 13.375V22H190.231V13.7C190.231 12.9333 190.172 12.275 190.056 11.725C189.956 11.1583 189.739 10.725 189.406 10.425C189.072 10.1083 188.564 9.95 187.881 9.95C187.297 9.95 186.747 10.1417 186.231 10.525C185.714 10.9083 185.289 11.475 184.956 12.225C184.622 12.975 184.456 13.9083 184.456 15.025ZM192.906 15.025L192.231 12.275C192.231 11.8417 192.314 11.3583 192.481 10.825C192.664 10.2917 192.939 9.78333 193.306 9.3C193.689 8.8 194.181 8.39167 194.781 8.075C195.397 7.75833 196.147 7.6 197.031 7.6C197.897 7.6 198.656 7.78333 199.306 8.15C199.956 8.51667 200.456 9.125 200.806 9.975C201.172 10.8083 201.356 11.9417 201.356 13.375V22H198.681V13.7C198.681 12.9333 198.622 12.275 198.506 11.725C198.406 11.1583 198.189 10.725 197.856 10.425C197.522 10.1083 197.014 9.95 196.331 9.95C195.747 9.95 195.197 10.1417 194.681 10.525C194.164 10.9083 193.739 11.475 193.406 12.225C193.072 12.975 192.906 13.9083 192.906 15.025Z" fill="#242423"/>
<defs>
<clipPath id="clip0_435_257377">
<rect width="24" height="24" fill="white" transform="translate(0 1)"/>
</clipPath>
</defs>
</svg>
