<svg width="20" height="20" viewBox="0 0 20 20" fill="none" xmlns="http://www.w3.org/2000/svg">
<g clip-path="url(#clip0_1538_15)">
<path d="M18.4663 1.76127C17.3898 0.531854 16.0576 -0.0828857 14.4705 -0.0828857C12.8687 -0.0828857 11.4095 0.693379 10.0911 2.24495L10 2.3447L9.9089 2.24495C8.59051 0.693379 7.13128 -0.0828857 5.5295 -0.0828857C3.94241 -0.0828857 2.61019 0.531854 1.53371 1.76127C0.511551 2.95011 0 4.35584 0 5.97663C0 8.38196 0.706617 10.7938 2.11885 13.212C3.47777 15.5629 5.18632 17.4209 7.24538 18.7861C7.52782 18.9744 7.95842 19.2245 8.53713 19.5355C9.23637 19.9001 9.8381 20.0829 10 20.0829C10.1619 20.0829 10.7636 19.9001 11.4629 19.5355C12.0416 19.2245 12.4722 18.9744 12.7546 18.7861C14.8137 17.4209 16.5222 15.5629 17.8811 13.212C19.2934 10.7938 20 8.38197 20 5.97663C20 4.35584 19.4884 2.95011 18.4663 1.76127Z" fill="var(--color-brand-primary)"/>
<path d="M9.828 14.144C9.212 14.144 8.68 14.036 8.232 13.82C7.792 13.604 7.444 13.308 7.188 12.932C6.94 12.548 6.796 12.116 6.756 11.636H8.256C8.328 11.98 8.504 12.268 8.784 12.5C9.064 12.724 9.412 12.836 9.828 12.836C10.276 12.836 10.64 12.672 10.92 12.344C11.208 12.016 11.352 11.608 11.352 11.12C11.352 10.616 11.208 10.216 10.92 9.92C10.64 9.624 10.284 9.476 9.852 9.476C9.492 9.476 9.18 9.564 8.916 9.74C8.652 9.916 8.464 10.136 8.352 10.4H6.876L7.596 5.6H12.252V6.944H8.748L8.364 8.888C8.54 8.696 8.78 8.54 9.084 8.42C9.388 8.292 9.728 8.228 10.104 8.228C10.704 8.228 11.204 8.364 11.604 8.636C12.004 8.9 12.308 9.252 12.516 9.692C12.724 10.124 12.828 10.596 12.828 11.108C12.828 11.692 12.7 12.212 12.444 12.668C12.196 13.124 11.844 13.484 11.388 13.748C10.94 14.012 10.42 14.144 9.828 14.144Z" fill="white"/>
</g>
<defs>
<clipPath id="clip0_1538_15">
<rect width="20" height="20" fill="white"/>
</clipPath>
</defs>
</svg>
