<svg width="20" height="20" viewBox="0 0 20 20" fill="none" xmlns="http://www.w3.org/2000/svg">
<g clip-path="url(#clip0_1538_27)">
<path d="M18.4663 1.76127C17.3898 0.531854 16.0576 -0.0828857 14.4705 -0.0828857C12.8687 -0.0828857 11.4095 0.693379 10.0911 2.24495L10 2.3447L9.9089 2.24495C8.59051 0.693379 7.13128 -0.0828857 5.5295 -0.0828857C3.94241 -0.0828857 2.61019 0.531854 1.53371 1.76127C0.511551 2.95011 0 4.35584 0 5.97663C0 8.38196 0.706617 10.7938 2.11885 13.212C3.47777 15.5629 5.18632 17.4209 7.24538 18.7861C7.52782 18.9744 7.95842 19.2245 8.53713 19.5355C9.23637 19.9001 9.8381 20.0829 10 20.0829C10.1619 20.0829 10.7636 19.9001 11.4629 19.5355C12.0416 19.2245 12.4722 18.9744 12.7546 18.7861C14.8137 17.4209 16.5222 15.5629 17.8811 13.212C19.2934 10.7938 20 8.38197 20 5.97663C20 4.35584 19.4884 2.95011 18.4663 1.76127Z" fill="var(--color-brand-primary)"/>
<path d="M9.684 14.144C9.1 14.144 8.608 14.032 8.208 13.808C7.808 13.576 7.496 13.276 7.272 12.908C7.048 12.54 6.916 12.144 6.876 11.72H8.304C8.368 12.088 8.52 12.372 8.76 12.572C9.008 12.772 9.32 12.872 9.696 12.872C10.232 12.872 10.664 12.628 10.992 12.14C11.32 11.644 11.496 10.892 11.52 9.884C11.328 10.212 11.036 10.484 10.644 10.7C10.26 10.916 9.836 11.024 9.372 11.024C8.908 11.024 8.472 10.912 8.064 10.688C7.656 10.464 7.324 10.148 7.068 9.74C6.812 9.332 6.684 8.852 6.684 8.3C6.684 7.796 6.808 7.328 7.056 6.896C7.304 6.464 7.648 6.116 8.088 5.852C8.528 5.588 9.044 5.456 9.636 5.456C10.268 5.456 10.8 5.572 11.232 5.804C11.664 6.036 12.008 6.348 12.264 6.74C12.528 7.132 12.716 7.568 12.828 8.048C12.948 8.528 13.008 9.02 13.008 9.524C13.008 10.46 12.876 11.276 12.612 11.972C12.356 12.66 11.976 13.196 11.472 13.58C10.976 13.956 10.38 14.144 9.684 14.144ZM9.732 9.728C10.028 9.728 10.296 9.664 10.536 9.536C10.776 9.4 10.964 9.224 11.1 9.008C11.236 8.784 11.304 8.536 11.304 8.264C11.304 7.832 11.152 7.476 10.848 7.196C10.552 6.916 10.176 6.776 9.72 6.776C9.272 6.776 8.9 6.916 8.604 7.196C8.308 7.468 8.16 7.816 8.16 8.24C8.16 8.688 8.308 9.048 8.604 9.32C8.9 9.592 9.276 9.728 9.732 9.728Z" fill="white"/>
</g>
<defs>
<clipPath id="clip0_1538_27">
<rect width="20" height="20" fill="white"/>
</clipPath>
</defs>
</svg>
