<svg width="20" height="20" viewBox="0 0 20 20" fill="none" xmlns="http://www.w3.org/2000/svg">
<g clip-path="url(#clip0_1538_24)">
<path d="M18.4663 1.76127C17.3898 0.531854 16.0576 -0.0828857 14.4705 -0.0828857C12.8687 -0.0828857 11.4095 0.693379 10.0911 2.24495L10 2.3447L9.9089 2.24495C8.59051 0.693379 7.13128 -0.0828857 5.5295 -0.0828857C3.94241 -0.0828857 2.61019 0.531854 1.53371 1.76127C0.511551 2.95011 0 4.35584 0 5.97663C0 8.38196 0.706617 10.7938 2.11885 13.212C3.47777 15.5629 5.18632 17.4209 7.24538 18.7861C7.52782 18.9744 7.95842 19.2245 8.53713 19.5355C9.23637 19.9001 9.8381 20.0829 10 20.0829C10.1619 20.0829 10.7636 19.9001 11.4629 19.5355C12.0416 19.2245 12.4722 18.9744 12.7546 18.7861C14.8137 17.4209 16.5222 15.5629 17.8811 13.212C19.2934 10.7938 20 8.38197 20 5.97663C20 4.35584 19.4884 2.95011 18.4663 1.76127Z" fill="var(--color-brand-primary)"/>
<path d="M9.78 14.144C9.204 14.144 8.684 14.044 8.22 13.844C7.756 13.636 7.384 13.344 7.104 12.968C6.832 12.592 6.696 12.156 6.696 11.66C6.696 11.148 6.828 10.7 7.092 10.316C7.364 9.932 7.72 9.656 8.16 9.488C7.776 9.32 7.472 9.08 7.248 8.768C7.024 8.448 6.912 8.092 6.912 7.7C6.912 7.3 7.02 6.932 7.236 6.596C7.452 6.252 7.772 5.976 8.196 5.768C8.628 5.56 9.156 5.456 9.78 5.456C10.404 5.456 10.928 5.56 11.352 5.768C11.776 5.976 12.096 6.252 12.312 6.596C12.528 6.932 12.636 7.3 12.636 7.7C12.636 8.084 12.52 8.44 12.288 8.768C12.064 9.088 11.764 9.328 11.388 9.488C11.836 9.656 12.192 9.932 12.456 10.316C12.72 10.7 12.852 11.148 12.852 11.66C12.852 12.156 12.716 12.592 12.444 12.968C12.172 13.344 11.8 13.636 11.328 13.844C10.864 14.044 10.348 14.144 9.78 14.144ZM9.78 9.032C10.196 9.032 10.524 8.924 10.764 8.708C11.004 8.492 11.124 8.216 11.124 7.88C11.124 7.512 11.004 7.224 10.764 7.016C10.532 6.808 10.204 6.704 9.78 6.704C9.348 6.704 9.016 6.808 8.784 7.016C8.552 7.224 8.436 7.512 8.436 7.88C8.436 8.224 8.552 8.504 8.784 8.72C9.024 8.928 9.356 9.032 9.78 9.032ZM9.78 12.86C10.292 12.86 10.68 12.736 10.944 12.488C11.208 12.232 11.34 11.912 11.34 11.528C11.34 11.104 11.2 10.772 10.92 10.532C10.648 10.292 10.268 10.172 9.78 10.172C9.292 10.172 8.904 10.292 8.616 10.532C8.336 10.772 8.196 11.104 8.196 11.528C8.196 11.912 8.328 12.232 8.592 12.488C8.864 12.736 9.26 12.86 9.78 12.86Z" fill="white"/>
</g>
<defs>
<clipPath id="clip0_1538_24">
<rect width="20" height="20" fill="white"/>
</clipPath>
</defs>
</svg>
