<svg width="20" height="20" viewBox="0 0 20 20" fill="none" xmlns="http://www.w3.org/2000/svg">
<g clip-path="url(#clip0_1538_30)">
<path d="M18.4663 1.76127C17.3898 0.531854 16.0576 -0.0828857 14.4705 -0.0828857C12.8687 -0.0828857 11.4095 0.693379 10.0911 2.24495L10 2.3447L9.9089 2.24495C8.59051 0.693379 7.13128 -0.0828857 5.5295 -0.0828857C3.94241 -0.0828857 2.61019 0.531854 1.53371 1.76127C0.511551 2.95011 0 4.35584 0 5.97663C0 8.38196 0.706617 10.7938 2.11885 13.212C3.47777 15.5629 5.18632 17.4209 7.24538 18.7861C7.52782 18.9744 7.95842 19.2245 8.53713 19.5355C9.23637 19.9001 9.8381 20.0829 10 20.0829C10.1619 20.0829 10.7636 19.9001 11.4629 19.5355C12.0416 19.2245 12.4722 18.9744 12.7546 18.7861C14.8137 17.4209 16.5222 15.5629 17.8811 13.212C19.2934 10.7938 20 8.38197 20 5.97663C20 4.35584 19.4884 2.95011 18.4663 1.76127Z" fill="var(--color-brand-primary)"/>
<path d="M5.89988 14V7.352L4.51988 7.676V6.5L6.54788 5.6H7.49588V14H5.89988ZM12.5686 14.144C11.7926 14.144 11.1286 13.964 10.5766 13.604C10.0246 13.236 9.59659 12.728 9.29259 12.08C8.99659 11.424 8.84859 10.664 8.84859 9.8C8.84859 8.944 8.99659 8.188 9.29259 7.532C9.59659 6.876 10.0246 6.368 10.5766 6.008C11.1286 5.64 11.7926 5.456 12.5686 5.456C13.3446 5.456 14.0086 5.64 14.5606 6.008C15.1126 6.368 15.5366 6.876 15.8326 7.532C16.1366 8.188 16.2886 8.944 16.2886 9.8C16.2886 10.664 16.1366 11.424 15.8326 12.08C15.5366 12.728 15.1126 13.236 14.5606 13.604C14.0086 13.964 13.3446 14.144 12.5686 14.144ZM12.5686 12.764C13.2006 12.764 13.7166 12.5 14.1166 11.972C14.5166 11.444 14.7166 10.72 14.7166 9.8C14.7166 8.88 14.5166 8.156 14.1166 7.628C13.7166 7.1 13.2006 6.836 12.5686 6.836C11.9286 6.836 11.4086 7.1 11.0086 7.628C10.6166 8.156 10.4206 8.88 10.4206 9.8C10.4206 10.72 10.6166 11.444 11.0086 11.972C11.4086 12.5 11.9286 12.764 12.5686 12.764Z" fill="white"/>
</g>
<defs>
<clipPath id="clip0_1538_30">
<rect width="20" height="20" fill="white"/>
</clipPath>
</defs>
</svg>
