<svg width="20" height="20" viewBox="0 0 20 20" fill="none" xmlns="http://www.w3.org/2000/svg">
<g clip-path="url(#clip0_1538_18)">
<path d="M18.4663 1.76127C17.3898 0.531854 16.0576 -0.0828857 14.4705 -0.0828857C12.8687 -0.0828857 11.4095 0.693379 10.0911 2.24495L10 2.3447L9.9089 2.24495C8.59051 0.693379 7.13128 -0.0828857 5.5295 -0.0828857C3.94241 -0.0828857 2.61019 0.531854 1.53371 1.76127C0.511551 2.95011 0 4.35584 0 5.97663C0 8.38196 0.706617 10.7938 2.11885 13.212C3.47777 15.5629 5.18632 17.4209 7.24538 18.7861C7.52782 18.9744 7.95842 19.2245 8.53713 19.5355C9.23637 19.9001 9.8381 20.0829 10 20.0829C10.1619 20.0829 10.7636 19.9001 11.4629 19.5355C12.0416 19.2245 12.4722 18.9744 12.7546 18.7861C14.8137 17.4209 16.5222 15.5629 17.8811 13.212C19.2934 10.7938 20 8.38197 20 5.97663C20 4.35584 19.4884 2.95011 18.4663 1.76127Z" fill="var(--color-brand-primary)"/>
<path d="M9.972 14.144C9.34 14.144 8.808 14.028 8.376 13.796C7.944 13.564 7.596 13.252 7.332 12.86C7.068 12.468 6.876 12.032 6.756 11.552C6.644 11.072 6.588 10.58 6.588 10.076C6.588 9.14 6.72 8.328 6.984 7.64C7.248 6.944 7.628 6.408 8.124 6.032C8.62 5.648 9.22 5.456 9.924 5.456C10.5 5.456 10.988 5.572 11.388 5.804C11.796 6.028 12.112 6.324 12.336 6.692C12.56 7.06 12.692 7.456 12.732 7.88H11.304C11.232 7.512 11.076 7.228 10.836 7.028C10.596 6.828 10.288 6.728 9.912 6.728C9.376 6.728 8.944 6.976 8.616 7.472C8.288 7.96 8.112 8.708 8.088 9.716C8.28 9.388 8.568 9.116 8.952 8.9C9.336 8.684 9.764 8.576 10.236 8.576C10.7 8.576 11.136 8.688 11.544 8.912C11.952 9.136 12.28 9.452 12.528 9.86C12.784 10.268 12.912 10.748 12.912 11.3C12.912 11.804 12.788 12.272 12.54 12.704C12.3 13.136 11.956 13.484 11.508 13.748C11.068 14.012 10.556 14.144 9.972 14.144ZM9.888 12.824C10.336 12.824 10.704 12.688 10.992 12.416C11.288 12.136 11.436 11.784 11.436 11.36C11.436 10.912 11.288 10.552 10.992 10.28C10.696 10.008 10.32 9.872 9.864 9.872C9.568 9.872 9.3 9.94 9.06 10.076C8.828 10.204 8.644 10.38 8.508 10.604C8.372 10.82 8.304 11.064 8.304 11.336C8.304 11.768 8.452 12.124 8.748 12.404C9.052 12.684 9.432 12.824 9.888 12.824Z" fill="white"/>
</g>
<defs>
<clipPath id="clip0_1538_18">
<rect width="20" height="20" fill="white"/>
</clipPath>
</defs>
</svg>
