<svg width="20" height="20" viewBox="0 0 20 20" fill="none" xmlns="http://www.w3.org/2000/svg">
<g clip-path="url(#clip0_1530_33174)">
<path d="M18.4663 1.76127C17.3898 0.531855 16.0576 -0.0828857 14.4705 -0.0828857C12.8687 -0.0828857 11.4095 0.693379 10.0911 2.24495L10 2.3447L9.9089 2.24495C8.59051 0.693379 7.13128 -0.0828857 5.5295 -0.0828857C3.94241 -0.0828857 2.61019 0.531855 1.53371 1.76127C0.511551 2.95011 0 4.35584 0 5.97663C0 8.38196 0.706617 10.7938 2.11885 13.212C3.47777 15.5629 5.18632 17.4209 7.24538 18.7861C7.52782 18.9744 7.95842 19.2245 8.53713 19.5355C9.23637 19.9001 9.8381 20.0829 10 20.0829C10.1619 20.0829 10.7636 19.9001 11.4629 19.5355C12.0416 19.2245 12.4722 18.9744 12.7546 18.7861C14.8137 17.4209 16.5222 15.5629 17.8811 13.212C19.2934 10.7938 20 8.38197 20 5.97663C20 4.35584 19.4884 2.95011 18.4663 1.76127Z" fill="white"/>
<path d="M7.6 14V12.812C8.112 12.404 8.608 11.996 9.088 11.588C9.576 11.18 10.012 10.776 10.396 10.376C10.78 9.968 11.084 9.572 11.308 9.188C11.532 8.804 11.644 8.432 11.644 8.072C11.644 7.848 11.604 7.644 11.524 7.46C11.444 7.268 11.316 7.116 11.14 7.004C10.972 6.884 10.748 6.824 10.468 6.824C10.188 6.824 9.952 6.888 9.76 7.016C9.568 7.144 9.424 7.316 9.328 7.532C9.232 7.74 9.184 7.976 9.184 8.24H7.612C7.636 7.624 7.776 7.108 8.032 6.692C8.288 6.276 8.632 5.968 9.064 5.768C9.496 5.56 9.98 5.456 10.516 5.456C11.108 5.456 11.608 5.568 12.016 5.792C12.424 6.008 12.732 6.304 12.94 6.68C13.156 7.056 13.264 7.488 13.264 7.976C13.264 8.344 13.196 8.704 13.06 9.056C12.932 9.408 12.748 9.752 12.508 10.088C12.276 10.416 12.012 10.732 11.716 11.036C11.42 11.34 11.112 11.632 10.792 11.912C10.472 12.184 10.16 12.44 9.856 12.68H13.468V14H7.6Z" fill="var(--color-brand-primary)"/>
</g>
<defs>
<clipPath id="clip0_1530_33174">
<rect width="20" height="20" fill="white"/>
</clipPath>
</defs>
</svg>
