<svg width="20" height="20" viewBox="0 0 20 20" fill="none" xmlns="http://www.w3.org/2000/svg">
<g clip-path="url(#clip0_1530_33177)">
<path d="M18.4663 1.76127C17.3898 0.531855 16.0576 -0.0828857 14.4705 -0.0828857C12.8687 -0.0828857 11.4095 0.693379 10.0911 2.24495L10 2.3447L9.9089 2.24495C8.59051 0.693379 7.13128 -0.0828857 5.5295 -0.0828857C3.94241 -0.0828857 2.61019 0.531855 1.53371 1.76127C0.511551 2.95011 0 4.35584 0 5.97663C0 8.38196 0.706617 10.7938 2.11885 13.212C3.47777 15.5629 5.18632 17.4209 7.24538 18.7861C7.52782 18.9744 7.95842 19.2245 8.53713 19.5355C9.23637 19.9001 9.8381 20.0829 10 20.0829C10.1619 20.0829 10.7636 19.9001 11.4629 19.5355C12.0416 19.2245 12.4722 18.9744 12.7546 18.7861C14.8137 17.4209 16.5222 15.5629 17.8811 13.212C19.2934 10.7938 20 8.38197 20 5.97663C20 4.35584 19.4884 2.95011 18.4663 1.76127Z" fill="white"/>
<path d="M9.564 14.144C9.012 14.144 8.512 14.048 8.064 13.856C7.616 13.656 7.256 13.352 6.984 12.944C6.712 12.536 6.568 12.024 6.552 11.408H8.064C8.072 11.816 8.204 12.16 8.46 12.44C8.724 12.712 9.092 12.848 9.564 12.848C10.012 12.848 10.356 12.724 10.596 12.476C10.836 12.228 10.956 11.916 10.956 11.54C10.956 11.1 10.796 10.768 10.476 10.544C10.164 10.312 9.76 10.196 9.264 10.196H8.64V8.936H9.276C9.684 8.936 10.024 8.84 10.296 8.648C10.568 8.456 10.704 8.172 10.704 7.796C10.704 7.484 10.6 7.236 10.392 7.052C10.192 6.86 9.912 6.764 9.552 6.764C9.16 6.764 8.852 6.88 8.628 7.112C8.412 7.344 8.292 7.628 8.268 7.964H6.768C6.8 7.188 7.068 6.576 7.572 6.128C8.084 5.68 8.744 5.456 9.552 5.456C10.128 5.456 10.612 5.56 11.004 5.768C11.404 5.968 11.704 6.236 11.904 6.572C12.112 6.908 12.216 7.28 12.216 7.688C12.216 8.16 12.084 8.56 11.82 8.888C11.564 9.208 11.244 9.424 10.86 9.536C11.332 9.632 11.716 9.864 12.012 10.232C12.308 10.592 12.456 11.048 12.456 11.6C12.456 12.064 12.344 12.488 12.12 12.872C11.896 13.256 11.568 13.564 11.136 13.796C10.712 14.028 10.188 14.144 9.564 14.144Z" fill="var(--color-brand-primary)"/>
</g>
<defs>
<clipPath id="clip0_1530_33177">
<rect width="20" height="20" fill="white"/>
</clipPath>
</defs>
</svg>
