<svg width="72" height="72" viewBox="0 0 72 72" fill="none" xmlns="http://www.w3.org/2000/svg">
<path d="M0 12C0 5.37258 5.37258 0 12 0H60C66.6274 0 72 5.37258 72 12V60C72 66.6274 66.6274 72 60 72H12C5.37258 72 0 66.6274 0 60V12Z" fill="white"/>
<path d="M19.6765 19.2091C19.8505 18.162 20.2408 16.5933 21.1958 14.9059C21.887 13.6846 22.6693 12.7627 23.3243 12.107C23.4732 11.9579 23.7156 11.9657 23.8547 12.1239C24.1565 12.4675 24.5148 12.9392 24.8331 13.5447C25.1594 14.1655 25.2385 14.5365 25.586 15.3731C25.7922 15.8698 26.1171 16.5886 26.602 17.4371" fill="#84212D"/>
<path d="M21.3984 18.7921C21.4859 18.2656 21.6821 17.477 22.1621 16.6288C22.5095 16.0149 22.9029 15.5514 23.2321 15.2217C23.3069 15.1468 23.4289 15.1507 23.4987 15.2303C23.6504 15.403 23.8305 15.6402 23.9905 15.9445C24.1545 16.2566 24.1942 16.4431 24.369 16.8637C24.4726 17.1133 24.636 17.4746 24.8798 17.9013" fill="#FF7A6D"/>
<path d="M52.3233 19.2263C52.1493 18.1791 51.759 16.6105 50.804 14.923C50.1129 13.7018 49.3306 12.7798 48.6756 12.1241C48.5266 11.975 48.2842 11.9828 48.1451 12.1411C47.8434 12.4846 47.4851 12.9564 47.1668 13.5618C46.8405 14.1827 46.7614 14.5537 46.4139 15.3903C46.2076 15.8869 45.8827 16.6057 45.3979 17.4543" fill="#84212D"/>
<path d="M50.6013 18.8092C50.5138 18.2828 50.3176 17.4942 49.8376 16.6459C49.4902 16.032 49.0968 15.5685 48.7676 15.2389C48.6928 15.1639 48.5708 15.1679 48.501 15.2474C48.3493 15.4201 48.1692 15.6573 48.0092 15.9616C47.8452 16.2738 47.8055 16.4602 47.6307 16.8808C47.5271 17.1305 47.3637 17.4918 47.1199 17.9184" fill="#FF7A6D"/>
<path d="M58.9682 28.7433C58.5155 26.2485 57.3655 23.9846 55.6114 22.3225C50.6335 17.6058 41.2121 18.1353 36 24.8961C30.7879 18.1353 21.3665 17.6058 16.3886 22.3225C14.6345 23.9846 13.4845 26.2484 13.0318 28.7433C12.2656 32.9657 13.671 37.2926 16.6794 40.3521L36 60L55.3205 40.3521C58.329 37.2926 59.7344 32.9657 58.9682 28.7433Z" fill="#ED2D3C"/>
<path d="M51.2478 39.3459C50.584 40.7082 49.1387 41.1087 48.0387 41.5571C43.2283 43.5177 38.388 43.689 35.9999 43.6839C33.9161 43.6794 29.0145 43.5305 24.0971 41.5611C22.9739 41.1111 21.5711 40.7269 20.8959 39.41C19.7843 37.242 19.3091 35.2418 19.3186 33.5146C19.328 31.8292 19.3499 30.5459 20.0995 29.2998C21.8747 26.3486 26.5404 25.6634 29.9058 26.5609C33.2271 27.4466 35.1538 29.8396 35.8778 30.8592C36.33 30.2386 39.2244 26.3972 44.0849 26.1491C44.6942 26.118 49.2192 25.887 51.4466 28.9934C52.5175 30.4868 52.611 32.1154 52.6738 33.5146C52.7439 35.0777 52.3361 37.1125 51.2478 39.3459Z" fill="#FF7A6D"/>
<path d="M28.9965 35.8052C29.8046 35.8052 30.4598 34.7847 30.4598 33.5258C30.4598 32.2669 29.8046 31.2464 28.9965 31.2464C28.1883 31.2464 27.5332 32.2669 27.5332 33.5258C27.5332 34.7847 28.1883 35.8052 28.9965 35.8052Z" fill="black"/>
<path d="M43.0037 35.8052C43.8118 35.8052 44.467 34.7847 44.467 33.5258C44.467 32.2669 43.8118 31.2464 43.0037 31.2464C42.1955 31.2464 41.5404 32.2669 41.5404 33.5258C41.5404 34.7847 42.1955 35.8052 43.0037 35.8052Z" fill="black"/>
<path d="M30.0737 36.7556C30.0342 36.5019 30.2701 36.2922 30.5186 36.3566C31.9042 36.7158 33.716 37.0402 35.8451 37.0554C38.1154 37.0715 40.0381 36.7309 41.482 36.3567C41.731 36.2921 41.9663 36.5032 41.9264 36.7573C41.4569 39.7472 38.8171 41.9758 35.8232 41.8881C32.9567 41.8041 30.5198 39.6188 30.0737 36.7557V36.7556Z" fill="black"/>
<path d="M38.828 40.623C38.7795 39.6633 37.5297 38.8943 35.9941 38.8943C34.4585 38.8943 33.2086 39.6632 33.1603 40.623C33.5485 40.8739 34.5671 41.4589 35.9941 41.4589C37.4211 41.4589 38.4397 40.8739 38.828 40.623Z" fill="#ED2D3C"/>
</svg>
