<svg width="146" height="28" viewBox="0 0 146 28" fill="none" xmlns="http://www.w3.org/2000/svg">
<mask id="mask0_2114_17939" style="mask-type:luminance" maskUnits="userSpaceOnUse" x="8" y="3" width="130" height="25">
<path d="M138 3H8V27.9315H138V3Z" fill="white"/>
</mask>
<g mask="url(#mask0_2114_17939)">
<path fill-rule="evenodd" clip-rule="evenodd" d="M59.2974 22.5024C54.4933 26.0467 47.5284 27.9315 41.5305 27.9315C33.1251 27.9315 25.5555 24.8253 19.8272 19.6546C19.3779 19.2482 19.7785 18.6938 20.3191 19.0082C26.4989 22.6033 34.1421 24.7686 42.035 24.7686C47.3598 24.7686 53.2133 23.6635 58.5992 21.3797C59.4115 21.0358 60.0928 21.9149 59.2974 22.5024Z" fill="#333E47"/>
<path fill-rule="evenodd" clip-rule="evenodd" d="M61.2969 20.2201C60.682 19.4338 57.2353 19.8475 55.6864 20.0331C55.2173 20.0897 55.1444 19.6797 55.5671 19.383C58.3171 17.4518 62.8237 18.0091 63.3473 18.6563C63.8746 19.3079 63.2081 23.8247 60.6319 25.9797C60.2349 26.311 59.8579 26.1343 60.0339 25.697C60.6142 24.2488 61.9119 21.0078 61.2969 20.2201Z" fill="#333E47"/>
<path fill-rule="evenodd" clip-rule="evenodd" d="M55.7954 5.74178V3.86583C55.7969 3.58016 56.012 3.39021 56.2712 3.39095L64.6833 3.39021C64.9521 3.39021 65.1686 3.58532 65.1686 3.86362V5.47232C65.1657 5.74252 64.9381 6.09444 64.5352 6.65325L60.1775 12.8731C61.7948 12.8355 63.5056 13.0777 64.9757 13.9031C65.3071 14.0893 65.3962 14.3654 65.422 14.6356V16.6375C65.422 16.9136 65.12 17.2324 64.8019 17.0667C62.2131 15.7106 58.7774 15.5626 55.914 17.0829C55.6216 17.239 55.316 16.9239 55.316 16.6478V14.7446C55.316 14.4405 55.3219 13.9193 55.629 13.4554L60.6768 6.21519L56.2815 6.21445C56.0127 6.21445 55.7969 6.02303 55.7954 5.74178Z" fill="#333E47"/>
<path fill-rule="evenodd" clip-rule="evenodd" d="M25.1107 17.4606H22.5514C22.3076 17.4452 22.1132 17.2626 22.0933 17.0284L22.0955 3.89748C22.0955 3.63538 22.3164 3.42555 22.5897 3.42555L24.9729 3.42481C25.2219 3.43733 25.4222 3.62581 25.4377 3.86583V5.57981H25.4863C26.1071 3.92178 27.2774 3.14799 28.8542 3.14799C30.4546 3.14799 31.4584 3.92178 32.175 5.57981C32.7958 3.92178 34.2055 3.14799 35.7101 3.14799C36.7854 3.14799 37.9556 3.59047 38.6722 4.58514C39.4846 5.69098 39.3181 7.29305 39.3181 8.70223L39.3152 16.9887C39.3152 17.25 39.095 17.4606 38.8217 17.4606H36.2661C36.0084 17.4444 35.8066 17.2412 35.8066 16.9894L35.8058 10.0282C35.8058 9.47602 35.8537 8.09482 35.7337 7.56988C35.5429 6.68491 34.9699 6.43606 34.2298 6.43606C33.6082 6.43606 32.963 6.85057 32.7001 7.51319C32.4372 8.17728 32.4615 9.28165 32.4615 10.0282V16.9887C32.4615 17.25 32.2405 17.4606 31.968 17.4606H29.4117C29.1547 17.4444 28.9521 17.2412 28.9521 16.9894L28.9492 10.0282C28.9492 8.56381 29.1886 6.40956 27.3731 6.40956C25.5334 6.40956 25.6056 8.50859 25.6056 10.0282L25.6041 16.9887C25.6041 17.25 25.3832 17.4606 25.1107 17.4606Z" fill="#333E47"/>
<path fill-rule="evenodd" clip-rule="evenodd" d="M72.4333 5.82866C70.5464 5.82866 70.4271 8.39742 70.4271 10.0002C70.4271 11.603 70.4035 15.0295 72.4105 15.0295C74.3931 15.0295 74.4888 12.2664 74.4888 10.5811C74.4888 9.47602 74.4402 8.14931 74.1058 7.09942C73.8194 6.18721 73.2456 5.82866 72.4333 5.82866ZM72.4105 3.14799C76.2085 3.14799 78.2625 6.40956 78.2625 10.5539C78.2625 14.5591 75.9934 17.7374 72.4105 17.7374C68.6831 17.7374 66.6526 14.4766 66.6526 10.4155C66.6526 6.32562 68.7067 3.14799 72.4105 3.14799Z" fill="#333E47"/>
<path fill-rule="evenodd" clip-rule="evenodd" d="M83.1889 17.4606H80.6384C80.3829 17.4444 80.1796 17.2412 80.1796 16.9894L80.1752 3.85405C80.1973 3.61329 80.4094 3.42555 80.6671 3.42555L83.0408 3.42481C83.2647 3.43659 83.4488 3.58826 83.496 3.7922V5.80068H83.5438C84.2612 4.00424 85.2635 3.14799 87.0311 3.14799C88.1778 3.14799 89.3009 3.56249 90.0175 4.69558C90.6862 5.74546 90.6862 7.51319 90.6862 8.78469V17.0476C90.6582 17.2802 90.4491 17.4606 90.1957 17.4606H87.6306C87.3934 17.4459 87.2027 17.2714 87.1747 17.0476V9.91851C87.1747 8.48135 87.3426 6.38084 85.5743 6.38084C84.9535 6.38084 84.3797 6.79535 84.0933 7.43073C83.7346 8.2325 83.6867 9.03354 83.6867 9.91851V16.9887C83.6823 17.25 83.4614 17.4606 83.1889 17.4606Z" fill="#333E47"/>
<path fill-rule="evenodd" clip-rule="evenodd" d="M51.6689 17.4282C51.5003 17.5799 51.2565 17.5902 51.065 17.4879C50.2151 16.7818 50.0626 16.4556 49.5979 15.7827C48.1935 17.2132 47.1985 17.6425 45.3786 17.6425C43.2244 17.6425 41.5482 16.3128 41.5482 13.655C41.5482 11.578 42.6743 10.1659 44.2776 9.47381C45.6659 8.8642 47.605 8.75376 49.0898 8.58737V8.25533C49.0898 7.64498 49.1376 6.9264 48.7782 6.39998C48.4667 5.92879 47.8687 5.73515 47.3421 5.73515C46.3655 5.73515 45.4987 6.23507 45.2851 7.27096C45.2402 7.50141 45.0723 7.73038 44.841 7.74216L42.3598 7.47343C42.1506 7.42558 41.9179 7.25771 41.9776 6.93818C42.541 3.97184 45.1908 3.04712 47.5991 3.02209H47.7891C49.022 3.03755 50.5966 3.37549 51.5555 4.29506C52.8009 5.45833 52.6801 7.00886 52.6801 8.69855V12.6838C52.6801 13.8832 53.1787 14.4089 53.6464 15.0546C53.8106 15.2879 53.8467 15.564 53.6383 15.7349C53.1154 16.1729 52.1867 16.9791 51.6763 17.4341L51.6689 17.4282ZM49.0898 11.1907C49.0898 12.1876 49.1133 13.0181 48.611 13.9045C48.2038 14.6239 47.5571 15.0671 46.8391 15.0671C45.8581 15.0671 45.2836 14.3198 45.2836 13.2117C45.2836 11.0324 47.2382 10.6363 49.0898 10.6363V11.1907Z" fill="#333E47"/>
<path fill-rule="evenodd" clip-rule="evenodd" d="M18.1215 17.4282C17.9521 17.5799 17.7076 17.5902 17.5168 17.4879C16.6662 16.7818 16.5137 16.4556 16.0497 15.7827C14.6445 17.2132 13.6503 17.6425 11.8304 17.6425C9.67623 17.6425 8 16.3128 8 13.655C8 11.578 9.12461 10.1659 10.7294 9.47381C12.1177 8.8642 14.0568 8.75376 15.5408 8.58737V8.25533C15.5408 7.64498 15.5894 6.9264 15.23 6.39998C14.9185 5.92879 14.3197 5.73515 13.7939 5.73515C12.8173 5.73515 11.949 6.23507 11.7369 7.27096C11.6927 7.50141 11.5241 7.73038 11.2921 7.74216L8.8116 7.47343C8.60171 7.42558 8.36898 7.25771 8.42937 6.93818C8.9913 3.97184 11.6419 3.04712 14.0509 3.02209H14.2409C15.4738 3.03755 17.0484 3.37549 18.0073 4.29506C19.252 5.45833 19.1319 7.00886 19.1319 8.69855V12.6838C19.1319 13.8832 19.6305 14.4089 20.0982 15.0546C20.2609 15.2879 20.2985 15.564 20.0901 15.7349C19.5672 16.1729 18.6377 16.9791 18.1274 17.4341L18.1215 17.4282ZM15.5408 11.1907C15.5408 12.1876 15.5651 13.0181 15.0621 13.9045C14.6556 14.6239 14.009 15.0671 13.2901 15.0671C12.3092 15.0671 11.7347 14.3198 11.7347 13.2117C11.7347 11.0324 13.6901 10.6363 15.5408 10.6363V11.1907Z" fill="#333E47"/>
<path fill-rule="evenodd" clip-rule="evenodd" d="M125.67 22.1711C125.67 21.8383 125.67 21.5394 125.67 21.2066C125.67 20.932 125.805 20.7428 126.091 20.7597C126.626 20.8356 127.382 20.9114 127.919 20.801C128.62 20.6552 129.123 20.1582 129.421 19.4772C129.84 18.5186 130.117 17.7455 130.293 17.2383L124.969 4.05357C124.879 3.82975 124.852 3.41451 125.299 3.41451H127.16C127.515 3.41451 127.66 3.6398 127.739 3.86067L131.599 14.5701L135.284 3.86067C135.359 3.64127 135.51 3.41451 135.862 3.41451H137.617C138.061 3.41451 138.036 3.82901 137.948 4.05357L132.666 17.6498C131.983 19.4595 131.073 22.3419 129.022 22.8426C127.994 23.1113 126.697 23.0141 125.936 22.6953C125.744 22.5989 125.67 22.3412 125.67 22.1711Z" fill="#333E47"/>
<path fill-rule="evenodd" clip-rule="evenodd" d="M123.187 16.6574C123.187 16.9025 122.986 17.1035 122.739 17.1035H121.427C121.143 17.1035 120.95 16.8989 120.914 16.6574L120.782 15.7643C120.179 16.2745 119.438 16.7229 118.636 17.0351C117.092 17.6344 115.313 17.7338 113.804 16.8076C112.714 16.1383 112.135 14.83 112.135 13.4805C112.135 12.4365 112.457 11.4013 113.17 10.6496C114.123 9.62254 115.503 9.11821 117.169 9.11821C118.176 9.11821 119.617 9.23674 120.665 9.5791V7.78192C120.665 5.95456 119.895 5.16383 117.866 5.16383C116.315 5.16383 115.129 5.39795 113.477 5.91112C113.213 5.91995 113.058 5.71896 113.058 5.47379V4.44893C113.058 4.20303 113.268 3.96522 113.496 3.89307C114.675 3.37917 116.345 3.0589 118.121 3C120.436 3 123.187 3.522 123.187 7.08101V16.6574ZM120.665 14.0334V11.3218C119.784 11.081 118.326 10.9809 117.762 10.9809C116.871 10.9809 115.895 11.1915 115.386 11.74C115.005 12.142 114.832 12.7192 114.832 13.2773C114.832 13.9988 115.082 14.7225 115.665 15.0803C116.343 15.5405 117.394 15.4845 118.382 15.204C119.331 14.9346 120.222 14.4582 120.665 14.0334Z" fill="#333E47"/>
<path fill-rule="evenodd" clip-rule="evenodd" d="M103.836 5.20432C106.748 5.20432 107.541 7.49331 107.541 10.1143C107.558 11.8813 107.233 13.4569 106.317 14.3588C105.632 15.0339 104.867 15.218 103.715 15.218C102.69 15.218 101.342 14.6835 100.334 13.9391V6.4449C101.383 5.63944 102.721 5.20432 103.836 5.20432ZM99.8878 22.6416H98.1298C97.8839 22.6416 97.6828 22.4406 97.6828 22.1954C97.6828 16.0919 97.6828 9.98771 97.6828 3.88423C97.6828 3.63906 97.8839 3.43807 98.1298 3.43807H99.4754C99.7582 3.43807 99.9519 3.64274 99.988 3.88423L100.129 4.84356C101.39 3.7252 103.012 3.0081 104.558 3.0081C108.888 3.0081 110.311 6.57448 110.311 10.2829C110.311 14.2506 108.133 17.4385 104.45 17.4385C102.899 17.4385 101.449 16.8665 100.334 15.8725V22.1954C100.334 22.4406 100.133 22.6416 99.8878 22.6416Z" fill="#333E47"/>
</g>
</svg>
