<svg width="64" height="28" viewBox="0 0 64 28" fill="none" xmlns="http://www.w3.org/2000/svg">
<path d="M11.6734 9.22198C10.7974 9.22198 9.44138 8.22598 8.01338 8.26198C6.12938 8.28598 4.40138 9.35397 3.42938 11.046C1.47338 14.442 2.92538 19.458 4.83338 22.218C5.76938 23.562 6.87338 25.074 8.33738 25.026C9.74138 24.966 10.2694 24.114 11.9734 24.114C13.6654 24.114 14.1454 25.026 15.6334 24.99C17.1454 24.966 18.1054 23.622 19.0294 22.266C20.0974 20.706 20.5414 19.194 20.5654 19.11C20.5294 19.098 17.6254 17.982 17.5894 14.622C17.5654 11.814 19.8814 10.47 19.9894 10.41C18.6694 8.47798 16.6414 8.26198 15.9334 8.21398C14.0854 8.06998 12.5374 9.22198 11.6734 9.22198ZM14.7934 6.38998C15.5734 5.45398 16.0894 4.14598 15.9454 2.84998C14.8294 2.89798 13.4854 3.59398 12.6814 4.52998C11.9614 5.35798 11.3374 6.68998 11.5054 7.96198C12.7414 8.05798 14.0134 7.32598 14.7934 6.38998Z" fill="white"/>
<path d="M29.4 7H31.58V21H29.4V7ZM30.5 14.18H34.02V16.1H30.5V14.18ZM34.02 14.18C34.8333 14.18 35.52 14.1067 36.08 13.96C36.6533 13.8133 37.0867 13.5467 37.38 13.16C37.6867 12.7733 37.84 12.2333 37.84 11.54C37.84 10.8333 37.6867 10.2933 37.38 9.92C37.0867 9.53333 36.6533 9.27333 36.08 9.14C35.52 8.99333 34.8333 8.92 34.02 8.92V7C35.2733 7 36.3533 7.14667 37.26 7.44C38.18 7.73333 38.8867 8.21333 39.38 8.88C39.8733 9.53333 40.12 10.42 40.12 11.54C40.12 12.6333 39.8733 13.52 39.38 14.2C38.8867 14.8667 38.18 15.3533 37.26 15.66C36.3533 15.9533 35.2733 16.1 34.02 16.1V14.18ZM30.5 7H34.02V8.92H30.5V7ZM49.3111 14.6H51.4511V21H49.3111V14.6ZM46.8111 9.48C48.3444 9.48 49.4978 9.94 50.2711 10.86C51.0578 11.78 51.4511 13.0267 51.4511 14.6H49.3111C49.3111 13.9467 49.2311 13.3867 49.0711 12.92C48.9111 12.44 48.6444 12.0667 48.2711 11.8C47.9111 11.5333 47.4244 11.4 46.8111 11.4C45.9578 11.4 45.3044 11.6267 44.8511 12.08C44.4111 12.5333 44.1911 13.0867 44.1911 13.74H41.9311C41.9311 13.0067 42.1178 12.32 42.4911 11.68C42.8644 11.0267 43.4178 10.5 44.1511 10.1C44.8844 9.68667 45.7711 9.48 46.8111 9.48ZM49.4911 14.06L49.9111 15.62C48.0444 15.46 46.6644 15.5933 45.7711 16.02C44.8911 16.4333 44.4511 16.9933 44.4511 17.7C44.4511 18.2733 44.6311 18.7067 44.9911 19C45.3644 19.28 45.8778 19.42 46.5311 19.42C47.0644 19.42 47.5378 19.3133 47.9511 19.1C48.3778 18.8733 48.7111 18.5467 48.9511 18.12C49.1911 17.6933 49.3111 17.18 49.3111 16.58L49.8511 17.54C49.7711 18.2867 49.5844 18.9467 49.2911 19.52C48.9978 20.08 48.5844 20.52 48.0511 20.84C47.5178 21.16 46.8578 21.32 46.0711 21.32C45.3378 21.32 44.6778 21.1867 44.0911 20.92C43.5044 20.64 43.0378 20.24 42.6911 19.72C42.3578 19.2 42.1911 18.5667 42.1911 17.82C42.1911 17.1 42.3378 16.5067 42.6311 16.04C42.9244 15.56 43.3178 15.18 43.8111 14.9C44.3044 14.62 44.8644 14.42 45.4911 14.3C46.1311 14.1667 46.7911 14.0867 47.4711 14.06C48.1511 14.0333 48.8244 14.0333 49.4911 14.06ZM53.822 25V23.16H55.122C55.602 23.16 55.9687 23.06 56.222 22.86C56.4754 22.6733 56.6754 22.4133 56.822 22.08C56.982 21.76 57.1287 21.3867 57.262 20.96L60.682 9.8H63.002L59.402 21C59.1887 21.6933 58.962 22.2867 58.722 22.78C58.4954 23.2867 58.2287 23.7 57.922 24.02C57.6287 24.3533 57.2554 24.6 56.802 24.76C56.362 24.92 55.8087 25 55.142 25H53.822ZM56.402 21L52.802 9.8H55.122L58.442 21H56.402Z" fill="white"/>
</svg>
