<svg width="64" height="28" viewBox="0 0 64 28" fill="none" xmlns="http://www.w3.org/2000/svg">
<path d="M22 14.2996C22 13.5918 21.9213 12.8839 21.8427 12.176H12.011V16.1873H17.5954C17.3594 17.4458 16.6515 18.6256 15.5504 19.3335V21.9291H18.9325C20.8988 20.12 22 17.4458 22 14.2996Z" fill="#4285F4"/>
<path d="M12.011 24.446C14.8425 24.446 17.2021 23.5021 18.9325 21.9291L15.5504 19.3335C14.6065 19.9627 13.4267 20.356 12.011 20.356C9.33672 20.356 6.97711 18.5469 6.19057 16.03H2.7298V18.7042C4.53884 22.2437 8.07826 24.446 12.011 24.446Z" fill="#34A853"/>
<path d="M6.19057 16.03C5.71864 14.7716 5.71864 13.3558 6.19057 12.0187V9.34444H2.7298C1.23537 12.2546 1.23537 15.7154 2.7298 18.7043L6.19057 16.03Z" fill="#FBBC04"/>
<path d="M12.0109 7.77137C13.5054 7.77137 14.9211 8.32195 16.0223 9.34445L19.0111 6.3556C17.1234 4.62522 14.6065 3.60272 12.0896 3.68137C8.15691 3.68137 4.53883 5.88368 2.80844 9.4231L6.26921 12.0973C6.9771 9.58041 9.33671 7.77137 12.0109 7.77137Z" fill="#EA4335"/>
<path d="M29.4 7H31.58V21H29.4V7ZM30.5 14.18H34.02V16.1H30.5V14.18ZM34.02 14.18C34.8333 14.18 35.52 14.1067 36.08 13.96C36.6533 13.8133 37.0867 13.5467 37.38 13.16C37.6867 12.7733 37.84 12.2333 37.84 11.54C37.84 10.8333 37.6867 10.2933 37.38 9.92C37.0867 9.53333 36.6533 9.27333 36.08 9.14C35.52 8.99333 34.8333 8.92 34.02 8.92V7C35.2733 7 36.3533 7.14667 37.26 7.44C38.18 7.73333 38.8867 8.21333 39.38 8.88C39.8733 9.53333 40.12 10.42 40.12 11.54C40.12 12.6333 39.8733 13.52 39.38 14.2C38.8867 14.8667 38.18 15.3533 37.26 15.66C36.3533 15.9533 35.2733 16.1 34.02 16.1V14.18ZM30.5 7H34.02V8.92H30.5V7ZM49.3111 14.6H51.4511V21H49.3111V14.6ZM46.8111 9.48C48.3444 9.48 49.4978 9.94 50.2711 10.86C51.0578 11.78 51.4511 13.0267 51.4511 14.6H49.3111C49.3111 13.9467 49.2311 13.3867 49.0711 12.92C48.9111 12.44 48.6444 12.0667 48.2711 11.8C47.9111 11.5333 47.4244 11.4 46.8111 11.4C45.9578 11.4 45.3044 11.6267 44.8511 12.08C44.4111 12.5333 44.1911 13.0867 44.1911 13.74H41.9311C41.9311 13.0067 42.1178 12.32 42.4911 11.68C42.8644 11.0267 43.4178 10.5 44.1511 10.1C44.8844 9.68667 45.7711 9.48 46.8111 9.48ZM49.4911 14.06L49.9111 15.62C48.0444 15.46 46.6644 15.5933 45.7711 16.02C44.8911 16.4333 44.4511 16.9933 44.4511 17.7C44.4511 18.2733 44.6311 18.7067 44.9911 19C45.3644 19.28 45.8778 19.42 46.5311 19.42C47.0644 19.42 47.5378 19.3133 47.9511 19.1C48.3778 18.8733 48.7111 18.5467 48.9511 18.12C49.1911 17.6933 49.3111 17.18 49.3111 16.58L49.8511 17.54C49.7711 18.2867 49.5844 18.9467 49.2911 19.52C48.9978 20.08 48.5844 20.52 48.0511 20.84C47.5178 21.16 46.8578 21.32 46.0711 21.32C45.3378 21.32 44.6778 21.1867 44.0911 20.92C43.5044 20.64 43.0378 20.24 42.6911 19.72C42.3578 19.2 42.1911 18.5667 42.1911 17.82C42.1911 17.1 42.3378 16.5067 42.6311 16.04C42.9244 15.56 43.3178 15.18 43.8111 14.9C44.3044 14.62 44.8644 14.42 45.4911 14.3C46.1311 14.1667 46.7911 14.0867 47.4711 14.06C48.1511 14.0333 48.8244 14.0333 49.4911 14.06ZM53.822 25V23.16H55.122C55.602 23.16 55.9687 23.06 56.222 22.86C56.4754 22.6733 56.6754 22.4133 56.822 22.08C56.982 21.76 57.1287 21.3867 57.262 20.96L60.682 9.8H63.002L59.402 21C59.1887 21.6933 58.962 22.2867 58.722 22.78C58.4954 23.2867 58.2287 23.7 57.922 24.02C57.6287 24.3533 57.2554 24.6 56.802 24.76C56.362 24.92 55.8087 25 55.142 25H53.822ZM56.402 21L52.802 9.8H55.122L58.442 21H56.402Z" fill="#242423"/>
</svg>
