<svg width="240" height="241" viewBox="0 0 240 241" fill="none" xmlns="http://www.w3.org/2000/svg">
<g clip-path="url(#clip0_4025_2356)">
<path d="M221.595 22.0395C208.678 7.34674 192.691 0 173.646 0C154.425 0 136.914 9.2771 121.093 27.8199L120 29.012L118.907 27.8199C103.086 9.2771 85.5753 0 66.3541 0C47.309 0 31.3223 7.34674 18.4046 22.0395C6.13861 36.2472 0 53.0471 0 72.4171C0 101.163 8.47941 129.986 25.4262 158.887C41.7332 186.983 62.2359 209.188 86.9445 225.502C90.3338 227.752 95.501 230.742 102.446 234.459C110.836 238.816 118.057 241 120 241C121.943 241 129.164 238.816 137.554 234.459C144.499 230.742 149.666 227.752 153.055 225.502C177.764 209.188 198.267 186.983 214.574 158.887C231.521 129.987 240 101.163 240 72.4171C240 53.0471 233.861 36.2472 221.595 22.0395Z" fill="#BE1D2C"/>
<path d="M165.975 57.9469H149.413C148.867 57.9469 148.425 58.3886 148.425 58.9337V106.877C148.425 107.149 148.314 107.396 148.136 107.575C147.853 107.857 147.503 107.864 147.437 107.864C136.054 112.684 125.929 113.433 120.001 113.433C107.867 113.433 98.39 110.296 92.883 107.995C92.8884 107.989 92.9002 107.976 92.8993 107.975C92.5172 107.801 92.1503 107.62 91.777 107.441C91.6603 107.279 91.5776 107.091 91.5776 106.877V57.8437H91.5581C91.1618 37.8129 72.0383 35.533 60.5282 38.4973C46.3976 42.1366 34.6143 60.5837 42.1563 80.0764C42.1567 80.0764 42.1567 80.0762 42.1567 80.0761L42.1563 80.0764C44.0662 85.592 47.9148 94.4533 55.6771 103.221C61.597 109.908 67.8905 114.391 73.0401 117.342V180.43C73.0401 180.975 73.4824 181.417 74.0281 181.417H90.5896C91.1352 181.417 91.5776 180.975 91.5776 180.43V127.371C91.5776 127.099 91.6885 126.852 91.867 126.673C92.1497 126.391 92.4993 126.384 92.5655 126.384C97.9254 128.705 107.064 131.858 118.778 132.065C131.792 132.296 141.894 128.783 147.438 126.384C147.984 126.384 148.426 126.826 148.426 127.371V180.43C148.426 180.975 148.868 181.417 149.413 181.417H165.975C166.521 181.417 166.963 180.975 166.963 180.43V58.9337C166.963 58.3886 166.521 57.9469 165.975 57.9469H165.975ZM70.2517 91.5313C61.9895 82.5259 57.8985 73.3527 55.8913 67.7535C54.1176 62.2361 57.1094 59.9103 59.3957 59.7275C62.1252 59.5117 62.91 61.4392 64.5145 66.7755C64.5367 66.8489 64.6474 66.8202 64.6352 66.7446C64.1589 63.8499 63.9236 58.755 66.7671 56.9854C68.5318 55.8873 70.6809 55.8859 71.9383 57.3213C72.1767 57.5934 73.0394 58.4493 73.0394 60.3973C73.0394 60.3976 73.0397 60.3982 73.0397 60.3986V94.3984C71.9767 93.365 71.0444 92.3961 70.2515 91.5315L70.2517 91.5313Z" fill="white"/>
</g>
<defs>
<clipPath id="clip0_4025_2356">
<rect width="240" height="241" fill="white"/>
</clipPath>
</defs>
</svg>
