<svg width="239" height="241" viewBox="0 0 239 241" fill="none" xmlns="http://www.w3.org/2000/svg">
<g clip-path="url(#clip0_4025_2355)">
<path d="M220.672 22.0395C207.808 7.34674 191.888 0 172.922 0C153.781 0 136.343 9.2771 120.589 27.8199L119.5 29.012L118.411 27.8199C102.657 9.2771 85.2187 0 66.0776 0C47.1119 0 31.1918 7.34674 18.3279 22.0395C6.11303 36.2472 0 53.0471 0 72.4171C0 101.163 8.44408 129.986 25.3203 158.887C41.5594 186.983 61.9766 209.188 86.5822 225.502C89.9574 227.752 95.1031 230.742 102.019 234.459C110.375 238.816 117.565 241 119.5 241C121.435 241 128.625 238.816 136.981 234.459C143.897 230.742 149.043 227.752 152.418 225.502C177.023 209.188 197.441 186.983 213.68 158.887C230.556 129.987 239 101.163 239 72.4171C239 53.0471 232.887 36.2472 220.672 22.0395Z" fill="#242423"/>
<path d="M165.283 57.9469H148.79C148.247 57.9469 147.807 58.3886 147.807 58.9337V106.877C147.807 107.149 147.696 107.396 147.519 107.575C147.237 107.857 146.888 107.864 146.823 107.864C135.487 112.684 125.404 113.433 119.501 113.433C107.418 113.433 97.98 110.296 92.4959 107.995C92.5014 107.989 92.5131 107.976 92.5122 107.975C92.1317 107.801 91.7663 107.62 91.3946 107.441C91.2784 107.279 91.196 107.091 91.196 106.877V57.8437H91.1766C90.7819 37.8129 71.7382 35.533 60.276 38.4973C46.2042 42.1366 34.4701 60.5837 41.9807 80.0764C41.981 80.0764 41.981 80.0762 41.981 80.0761L41.9807 80.0764C43.8826 85.592 47.7151 94.4533 55.4451 103.221C61.3404 109.908 67.6076 114.391 72.7358 117.342V180.43C72.7358 180.975 73.1763 181.417 73.7196 181.417H90.2122C90.7555 181.417 91.196 180.975 91.196 180.43V127.371C91.196 127.099 91.3064 126.852 91.4842 126.673C91.7658 126.391 92.1139 126.384 92.1798 126.384C97.5174 128.705 106.618 131.858 118.283 132.065C131.243 132.296 141.303 128.783 146.823 126.384C147.367 126.384 147.807 126.826 147.807 127.371V180.43C147.807 180.975 148.248 181.417 148.791 181.417H165.283C165.827 181.417 166.267 180.975 166.267 180.43V58.9337C166.267 58.3886 165.827 57.9469 165.283 57.9469H165.283ZM69.959 91.5313C61.7313 82.5259 57.6572 73.3527 55.6584 67.7535C53.8921 62.2361 56.8715 59.9103 59.1482 59.7275C61.8663 59.5117 62.6479 61.4392 64.2457 66.7755C64.2678 66.8489 64.378 66.8202 64.3659 66.7446C63.8916 63.8499 63.6573 58.755 66.4889 56.9854C68.2462 55.8873 70.3864 55.8859 71.6386 57.3213C71.8759 57.5934 72.735 58.4493 72.735 60.3973C72.735 60.3976 72.7354 60.3982 72.7354 60.3986V94.3984C71.6768 93.365 70.7484 92.3961 69.9588 91.5315L69.959 91.5313Z" fill="white"/>
</g>
<defs>
<clipPath id="clip0_4025_2355">
<rect width="239" height="241" fill="white"/>
</clipPath>
</defs>
</svg>
