<svg width="240" height="241" viewBox="0 0 240 241" fill="none" xmlns="http://www.w3.org/2000/svg">
<g clip-path="url(#clip0_4025_2353)">
<path d="M71.9385 57.3211C70.681 55.8857 68.5318 55.8872 66.7671 56.9852C63.9236 58.7548 64.1589 63.8497 64.6352 66.7444C64.6474 66.8202 64.5367 66.8489 64.5145 66.7753C62.9101 61.4392 62.1252 59.5116 59.3957 59.7274C57.1094 59.9101 54.1176 62.2359 55.8913 67.7533C57.8983 73.3528 61.9894 82.526 70.2517 91.5311C71.0448 92.3958 71.9771 93.3647 73.0399 94.3981V60.3982C73.0399 60.3982 73.0396 60.3973 73.0396 60.3969C73.0396 58.4489 72.1769 57.593 71.9385 57.3209V57.3211Z" fill="white"/>
<path d="M221.595 22.0395C208.678 7.34674 192.691 0 173.646 0C154.425 0 136.914 9.27711 121.093 27.8199L120 29.012L118.907 27.8199C103.086 9.27711 85.5753 0 66.3541 0C47.309 0 31.3223 7.34674 18.4046 22.0395C6.13861 36.2472 0 53.0471 0 72.4171C0 101.163 8.47941 129.986 25.4262 158.887C41.7332 186.983 62.2359 209.187 86.9445 225.502C90.3338 227.752 95.501 230.741 102.446 234.459C110.837 238.816 118.057 241 120 241C121.943 241 129.163 238.816 137.554 234.459C144.499 230.741 149.666 227.752 153.055 225.502C177.764 209.187 198.267 186.983 214.574 158.887C231.521 129.986 240 101.163 240 72.4171C240 53.0469 233.861 36.247 221.595 22.0395ZM166.963 180.43C166.963 180.975 166.52 181.417 165.975 181.417H149.413C148.868 181.417 148.425 180.975 148.425 180.43V127.371C148.425 126.826 147.983 126.384 147.437 126.384C141.894 128.783 131.792 132.296 118.778 132.065C107.064 131.858 97.9251 128.705 92.5651 126.384C92.4992 126.384 92.1495 126.391 91.8666 126.673C91.6879 126.852 91.5772 127.099 91.5772 127.371V180.43C91.5772 180.975 91.1349 181.417 90.5892 181.417H74.0277C73.4823 181.417 73.0397 180.975 73.0397 180.43V117.342C67.8902 114.391 61.5966 109.908 55.6768 103.221C47.9144 94.4533 44.0659 85.592 42.156 80.0764C34.614 60.5836 46.3972 42.1366 60.5278 38.4973C72.038 35.533 91.1614 37.8129 91.5577 57.8437H91.5772V106.877C91.5772 107.091 91.6599 107.279 91.7766 107.441C92.1499 107.62 92.5166 107.801 92.8989 107.975C92.8999 107.976 92.888 107.989 92.8826 107.995C98.3896 110.296 107.867 113.433 120.001 113.433C125.928 113.433 136.054 112.684 147.437 107.864C147.503 107.864 147.853 107.857 148.136 107.575C148.314 107.396 148.425 107.149 148.425 106.877V58.9337C148.425 58.3886 148.867 57.9468 149.413 57.9468H165.975C166.52 57.9468 166.962 58.3886 166.962 58.9337L166.963 180.43Z" fill="white"/>
</g>
<defs>
<clipPath id="clip0_4025_2353">
<rect width="240" height="241" fill="white"/>
</clipPath>
</defs>
</svg>
