<svg width="456" height="114" viewBox="0 0 456 114" fill="none" xmlns="http://www.w3.org/2000/svg">
<g clip-path="url(#clip0_4025_2354)">
<path d="M105.142 10.4252C99.0125 3.47535 91.427 0 82.3908 0C73.2708 0 64.9623 4.38841 57.4558 13.1596L56.9371 13.7237L56.4183 13.1596C48.9118 4.38841 40.6033 0 31.4834 0C22.4472 0 14.8617 3.47535 8.73253 10.4252C2.91273 17.146 0 25.0928 0 34.2555C0 47.8531 4.02312 61.4877 12.0641 75.1584C19.8014 88.4483 29.5296 98.9517 41.253 106.669C42.8612 107.733 45.3127 109.147 48.6077 110.906C52.5889 112.967 56.0152 114 56.9366 114C57.8581 114 61.2844 112.967 65.2656 110.906C68.5605 109.147 71.0125 107.733 72.6203 106.669C84.3441 98.9517 94.0718 88.4483 101.809 75.1584C109.85 61.4877 113.873 47.8531 113.873 34.2555C113.873 25.0928 110.961 17.146 105.141 10.4256L105.142 10.4252Z" fill="#242423"/>
<path d="M124.747 63.0575C124.747 64.4186 124.623 65.6576 124.535 66.5615C124.512 66.801 124.31 66.9804 124.068 66.9804H95.9462C95.6643 66.9804 95.4427 67.2286 95.4793 67.5067C96.5391 75.5604 101.228 79.0001 106.478 79.0001C110.023 79.0001 112.872 77.765 115.694 75.7403C115.887 75.6021 116.152 75.6256 116.313 75.799L120.825 80.6611C121.001 80.8506 120.991 81.1491 120.801 81.3234C117.015 84.797 112.481 86.763 105.975 86.763C95.6674 86.763 86.9514 78.4995 86.9514 63.9753C86.9514 49.1174 94.8292 41.1046 106.226 41.1046C118.712 41.1046 124.746 51.2047 124.746 63.0575H124.747ZM115.521 59.8855C115.795 59.8855 116.015 59.6508 115.989 59.3783C115.447 53.5962 112.561 48.8675 105.64 48.8675C100.003 48.8675 96.5168 52.6736 95.646 59.3592C95.6098 59.6373 95.8319 59.8855 96.1137 59.8855H115.521Z" fill="white"/>
<path d="M163.914 85.8452H156.388C156.128 85.8452 155.919 85.6362 155.919 85.378V82.5858C155.919 82.1808 155.44 81.9709 155.137 82.2408C152.185 84.8704 148.23 86.7635 143.851 86.7635C136.729 86.7635 128.599 82.7566 128.599 71.989C128.599 62.2226 136.142 57.799 146.114 57.799C149.874 57.799 152.932 58.2892 155.287 59.2049C155.592 59.3235 155.919 59.0949 155.919 58.769V56.2128C155.919 51.455 152.985 48.7841 147.623 48.7841C143.282 48.7841 139.867 49.552 136.563 51.3085C136.331 51.432 136.044 51.3468 135.924 51.1134L132.991 45.4165C132.878 45.1974 132.954 44.9258 133.166 44.7998C137.261 42.3618 141.858 41.1046 147.875 41.1046C157.679 41.1046 164.384 45.8624 164.384 55.7952V85.378C164.384 85.6362 164.174 85.8452 163.915 85.8452H163.914ZM155.919 73.2501V67.4415C155.919 67.262 155.817 67.0965 155.655 67.0191C153.346 65.9244 150.381 65.2278 145.863 65.2278C140.332 65.2278 136.812 67.7318 136.812 71.7387C136.812 76.0793 139.578 79.0005 145.276 79.0005C149.815 79.0005 153.786 76.2483 155.826 73.5335C155.887 73.4514 155.919 73.3527 155.919 73.2501Z" fill="white"/>
<path d="M198.648 43.274L196.631 50.5645C196.553 50.8448 196.238 50.9909 195.977 50.8609C194.279 50.0187 192.449 49.535 189.857 49.535C184.409 49.535 181.225 53.3745 181.225 60.8037V85.378C181.225 85.6362 181.015 85.8452 180.756 85.8452H173.063C172.803 85.8452 172.594 85.6362 172.594 85.378V42.4896C172.594 42.2314 172.803 42.0224 173.063 42.0224H180.756C181.015 42.0224 181.225 42.2314 181.225 42.4896V44.8463C181.225 45.2761 181.756 45.4764 182.042 45.1544C184.154 42.7733 187.46 41.1046 191.282 41.1046C194.609 41.1046 196.739 41.7017 198.448 42.7542C198.624 42.862 198.703 43.0763 198.648 43.274Z" fill="white"/>
<path d="M226.191 78.0553L225.335 84.5214C225.315 84.6709 225.227 84.8026 225.094 84.8739C223.014 85.9821 220.162 86.763 216.839 86.763C210.722 86.763 206.951 83.0065 206.951 75.1601V50.335C206.951 50.0769 206.741 49.8679 206.482 49.8679H200.836C200.532 49.8679 200.309 49.5841 200.381 49.2899L202.077 42.3778C202.128 42.1688 202.316 42.0215 202.532 42.0215H206.482C206.741 42.0215 206.951 41.8125 206.951 41.5543V29.7806C206.951 29.6081 207.046 29.4499 207.199 29.3686C208.256 29.0862 209.551 28.6416 210.948 27.9232C212.567 27.0914 213.818 26.151 214.724 25.3605C214.736 25.3544 214.963 25.2388 215.186 25.3718C215.32 25.4513 215.414 25.596 215.414 25.7725V41.5543C215.414 41.8125 215.624 42.0215 215.884 42.0215H225.84C226.099 42.0215 226.309 42.2305 226.309 42.4887V49.4007C226.309 49.6588 226.099 49.8679 225.84 49.8679H215.884C215.624 49.8679 215.414 50.0769 215.414 50.335V73.6573C215.414 77.7476 216.756 78.9162 219.94 78.9162C221.862 78.9162 223.966 78.3143 225.531 77.5699C225.864 77.4117 226.24 77.6902 226.191 78.0549V78.0553Z" fill="white"/>
<path d="M274.41 69.0673C274.41 79.5842 267.705 86.7635 252.705 86.7635C244.325 86.7635 237.072 83.2325 232.131 77.6668C231.966 77.4804 231.979 77.1948 232.158 77.0214L237.784 71.567C237.971 71.3858 238.267 71.394 238.448 71.5813C242.376 75.6386 247.995 78.1666 253.376 78.1666C261.588 78.1666 265.527 75.3283 265.527 69.6527C265.527 65.1452 262.091 62.8914 252.287 59.9697C239.883 56.2971 233.934 53.209 233.934 42.7746C233.934 32.6745 242.482 26.4978 253.291 26.4978C261.076 26.4978 267.018 29.2909 272.135 34.0969C272.326 34.2764 272.33 34.5806 272.146 34.767L266.611 40.3549C266.429 40.5387 266.133 40.5365 265.948 40.3553C262.341 36.8235 258.23 35.0951 252.621 35.0951C245.75 35.0951 242.816 38.434 242.816 42.3574C242.816 46.4477 245.498 48.4507 255.638 51.4559C267.203 54.9616 274.41 58.6343 274.41 69.0686V69.0673Z" fill="white"/>
<path d="M302.783 78.0553L301.927 84.5214C301.907 84.6709 301.819 84.8026 301.685 84.8739C299.605 85.9821 296.754 86.763 293.43 86.763C287.314 86.763 283.542 83.0065 283.542 75.1601V50.335C283.542 50.0769 283.332 49.8679 283.073 49.8679H277.726C277.467 49.8679 277.257 49.6588 277.257 49.4007V42.4887C277.257 42.2305 277.467 42.0215 277.726 42.0215H283.073C283.332 42.0215 283.542 41.8125 283.542 41.5543V29.7806C283.542 29.6081 283.638 29.4499 283.79 29.3686C284.656 29.1926 285.678 28.9062 286.775 28.4295C288.876 27.516 290.37 26.2879 291.316 25.3605C291.327 25.3544 291.554 25.2388 291.778 25.3718C291.911 25.4513 292.006 25.596 292.006 25.7725V41.5543C292.006 41.8125 292.216 42.0215 292.475 42.0215H302.432C302.691 42.0215 302.901 42.2305 302.901 42.4887V49.4007C302.901 49.6588 302.691 49.8679 302.432 49.8679H292.475C292.216 49.8679 292.006 50.0769 292.006 50.335V73.6573C292.006 77.7476 293.348 78.9162 296.531 78.9162C298.454 78.9162 300.557 78.3143 302.123 77.5699C302.456 77.4117 302.831 77.6902 302.783 78.0549V78.0553Z" fill="white"/>
<path d="M342.404 85.8452H334.877C334.618 85.8452 334.408 85.6362 334.408 85.378V82.5858C334.408 82.1808 333.93 81.9709 333.627 82.2408C330.675 84.8704 326.719 86.7635 322.341 86.7635C315.218 86.7635 307.089 82.7566 307.089 71.989C307.089 62.2226 314.632 57.799 324.604 57.799C328.364 57.799 331.422 58.2892 333.776 59.2049C334.081 59.3235 334.408 59.0949 334.408 58.769V56.2128C334.408 51.455 331.475 48.7841 326.112 48.7841C321.772 48.7841 318.356 49.552 315.053 51.3085C314.821 51.432 314.533 51.3468 314.413 51.1134L311.48 45.4165C311.368 45.1974 311.443 44.9258 311.655 44.7998C315.75 42.3618 320.347 41.1046 326.365 41.1046C336.169 41.1046 342.873 45.8624 342.873 55.7952V85.378C342.873 85.6362 342.663 85.8452 342.404 85.8452ZM334.409 73.2501V67.4415C334.409 67.262 334.307 67.0965 334.145 67.0191C331.836 65.9244 328.872 65.2278 324.353 65.2278C318.822 65.2278 315.302 67.7318 315.302 71.7387C315.302 76.0793 318.068 79.0005 323.766 79.0005C328.305 79.0005 332.276 76.2483 334.316 73.5335C334.377 73.4514 334.409 73.3527 334.409 73.2501Z" fill="white"/>
<path d="M410.365 85.8452H402.67C402.411 85.8452 402.201 85.6362 402.201 85.378V61.054C402.201 52.2059 399.437 49.0344 393.738 49.0344C387.956 49.0344 385.274 53.1247 385.274 60.2196V85.378C385.274 85.6362 385.064 85.8452 384.805 85.8452H377.112C376.852 85.8452 376.642 85.6362 376.642 85.378V61.054C376.642 52.2059 373.877 49.0344 368.178 49.0344C362.396 49.0344 359.714 53.1247 359.714 60.2196V85.378C359.714 85.6362 359.504 85.8452 359.245 85.8452H351.552C351.293 85.8452 351.083 85.6362 351.083 85.378V42.4896C351.083 42.2314 351.293 42.0224 351.552 42.0224H359.245C359.504 42.0224 359.714 42.2314 359.714 42.4896V44.8406C359.714 45.2691 360.246 45.4721 360.53 45.1505C362.772 42.6073 366.186 41.105 370.19 41.105C375.868 41.105 379.562 43.1575 381.927 46.9731C382.094 47.2426 382.478 47.2608 382.682 47.0188C385.752 43.3922 389.182 41.105 395.749 41.105C405.972 41.105 410.833 47.7828 410.833 60.7207V85.3785C410.833 85.6366 410.623 85.8456 410.364 85.8456L410.365 85.8452Z" fill="white"/>
<path d="M456 64.6432C456 79.6684 447.788 86.7634 438.653 86.7634C434.658 86.7634 430.865 84.8717 428.374 82.5467C428.078 82.2699 427.592 82.4889 427.592 82.8935V97.2477C427.592 97.422 427.494 97.5819 427.339 97.6623C426.384 97.8327 425.167 98.1477 423.844 98.7557C421.932 99.634 420.578 100.765 419.729 101.601C419.717 101.607 419.49 101.72 419.269 101.586C419.137 101.506 419.044 101.361 419.044 101.186V42.4895C419.044 42.2314 419.254 42.0223 419.513 42.0223H427.122C427.381 42.0223 427.591 42.2314 427.591 42.4895V45.1583C427.591 45.5572 428.06 45.771 428.363 45.5112C431.37 42.9415 434.831 41.1041 439.072 41.1041C448.541 41.1041 455.999 47.9483 455.999 64.6428L456 64.6432ZM447.368 64.894C447.368 53.8756 443.849 49.0343 437.48 49.0343C433.436 49.0343 429.881 51.7061 427.612 54.4974C427.544 54.5813 427.507 54.6856 427.507 54.7938V72.9146C427.507 73.018 427.539 73.1171 427.602 73.1997C429.564 75.7633 433.528 78.834 437.815 78.834C444.017 78.834 447.368 74.1597 447.368 64.8944V64.894Z" fill="white"/>
<path d="M78.7507 27.4104H70.8925C70.6338 27.4104 70.424 27.6194 70.424 27.8771V50.5554C70.424 50.6844 70.3712 50.8009 70.2865 50.8857C70.1526 51.0191 69.9864 51.0225 69.9549 51.0225C64.554 53.3024 59.7495 53.657 56.9371 53.657C51.1797 53.657 46.6827 52.1733 44.0702 51.0847C44.0728 51.0816 44.0785 51.0756 44.078 51.0756C43.8965 50.993 43.7224 50.9074 43.5457 50.8231C43.4903 50.7466 43.4511 50.6575 43.4511 50.5558V27.3617H43.4419C43.2539 17.8865 34.1801 16.8083 28.719 18.2103C22.0144 19.9317 16.4236 28.6577 20.0022 37.8782C20.9084 40.4874 22.7343 44.679 26.4175 48.8266C29.2264 51.9895 32.2124 54.1103 34.6557 55.5061V85.3489C34.6557 85.6066 34.8656 85.8156 35.1243 85.8156H42.9825C43.2412 85.8156 43.4511 85.6066 43.4511 85.3489V60.2505C43.4511 60.1214 43.5039 60.0049 43.5885 59.9202C43.7224 59.7868 43.8887 59.7833 43.9201 59.7833C46.4633 60.881 50.7992 62.3725 56.3572 62.4707C62.5322 62.5798 67.3254 60.918 69.9554 59.7833C70.2145 59.7833 70.424 59.9923 70.424 60.25V85.3484C70.424 85.6062 70.6338 85.8152 70.8925 85.8152H78.7507C79.0095 85.8152 79.2193 85.6062 79.2193 85.3484V27.8771C79.2193 27.6194 79.0095 27.4104 78.7507 27.4104ZM33.3329 43.297C29.4127 39.0372 27.4716 34.6979 26.5192 32.0491C25.6775 29.439 27.0973 28.3391 28.1819 28.2526C29.4768 28.1505 29.8494 29.0622 30.6108 31.5863C30.6213 31.6211 30.674 31.6076 30.6679 31.5715C30.4419 30.2022 30.3302 27.7924 31.6793 26.955C32.5165 26.4356 33.5362 26.4348 34.133 27.114C34.246 27.2427 34.6553 27.6477 34.6553 28.569V44.6524C34.1509 44.1635 33.7085 43.7051 33.3324 43.2961L33.3329 43.297Z" fill="white"/>
</g>
<defs>
<clipPath id="clip0_4025_2354">
<rect width="456" height="114" fill="white"/>
</clipPath>
</defs>
</svg>
