<svg width="84" height="42" viewBox="0 0 84 42" fill="none" xmlns="http://www.w3.org/2000/svg">
<path d="M10.7826 8.85709L7 17.5838H9.46269L10.1606 15.8363H14.2181L14.9124 17.5838H17.4294L13.6504 8.85709H10.7826ZM12.1821 10.8881L13.4189 13.9417H10.9418L12.1821 10.8881V10.8881Z" fill="#016FD0"/>
<path d="M17.69 17.5824V8.85571L21.1896 8.86861L23.2251 14.495L25.2119 8.85571H28.6835V17.5824H26.4848V11.1522L24.1541 17.5824H22.2259L19.8887 11.1522V17.5824H17.69Z" fill="#016FD0"/>
<path d="M30.1879 17.5824V8.85571H37.3626V10.8077H32.4097V12.3005H37.2469V14.1377H32.4097V15.6878H37.3626V17.5824H30.1879Z" fill="#016FD0"/>
<path d="M38.6355 8.85721V17.5839H40.8342V14.4836H41.7599L44.3962 17.5839H47.0831L44.1901 14.3688C45.3774 14.2694 46.6022 13.2582 46.6022 11.6884C46.6022 9.85197 45.1495 8.85721 43.5283 8.85721H38.6355V8.85721ZM40.8342 10.8092H43.3475C43.9504 10.8092 44.389 11.2772 44.389 11.7278C44.389 12.3076 43.8207 12.6464 43.38 12.6464H40.8342V10.8092V10.8092Z" fill="#016FD0"/>
<path d="M49.7446 17.5824H47.4996V8.85571H49.7446V17.5824Z" fill="#016FD0"/>
<path d="M55.0678 17.5824H54.5832C52.2386 17.5824 50.815 15.7495 50.815 13.255C50.815 10.6987 52.2226 8.85571 55.1835 8.85571H57.6137V10.9226H55.0947C53.8927 10.9226 53.0427 11.8533 53.0427 13.2765C53.0427 14.9665 54.0147 15.6763 55.415 15.6763H55.9936L55.0678 17.5824Z" fill="#016FD0"/>
<path d="M59.8522 8.85721L56.0695 17.5839H58.5322L59.2302 15.8364H63.2877L63.982 17.5839H66.4989L62.7199 8.85721H59.8522ZM61.2517 10.8882L62.4885 13.9418H60.0113L61.2517 10.8882Z" fill="#016FD0"/>
<path d="M66.7556 17.5824V8.85571H69.551L73.1203 14.3386V8.85571H75.319V17.5824H72.614L68.9543 11.956V17.5824H66.7556Z" fill="#016FD0"/>
<path d="M18.0275 32.8542V24.1275H25.2022V26.0795H20.2494V27.5722H25.0865V29.4094H20.2494V30.9596H25.2022V32.8542H18.0275Z" fill="#016FD0"/>
<path d="M53.1835 32.8542V24.1275H60.3582V26.0795H55.4054V27.5722H60.2194V29.4094H55.4054V30.9596H60.3582V32.8542H53.1835Z" fill="#016FD0"/>
<path d="M25.4807 32.8542L28.9741 28.5447L25.3976 24.1275H28.1676L30.2976 26.8582L32.4349 24.1275H35.0964L31.5669 28.4908L35.0667 32.8542H32.2971L30.2289 30.1666L28.211 32.8542H25.4807Z" fill="#016FD0"/>
<path d="M35.3277 24.129V32.8557H37.5842V30.0999H39.8987C41.857 30.0999 43.3414 29.069 43.3414 27.0642C43.3414 25.4034 42.1772 24.129 40.1843 24.129H35.3277V24.129ZM37.5842 26.1026H40.0216C40.6543 26.1026 41.1065 26.4873 41.1065 27.1073C41.1065 27.6897 40.6566 28.112 40.0144 28.112H37.5842V26.1026Z" fill="#016FD0"/>
<path d="M44.2962 24.1275V32.8542H46.4949V29.7539H47.4207L50.0569 32.8542H52.7438L49.8508 29.6391C51.0381 29.5397 52.2629 28.5285 52.2629 26.9586C52.2629 25.1222 50.8102 24.1275 49.189 24.1275H44.2962V24.1275ZM46.4949 26.0795H49.0082C49.6111 26.0795 50.0497 26.5475 50.0497 26.9981C50.0497 27.5779 49.4814 27.9167 49.0407 27.9167H46.4949V26.0795V26.0795Z" fill="#016FD0"/>
<path d="M61.3765 32.8542V30.9596H65.7768C66.4279 30.9596 66.7098 30.6105 66.7098 30.2276C66.7098 29.8607 66.4288 29.4898 65.7768 29.4898H63.7884C62.06 29.4898 61.0974 28.4449 61.0974 26.8761C61.0974 25.4769 61.9789 24.1275 64.5473 24.1275H68.829L67.9032 26.091H64.2001C63.4923 26.091 63.2744 26.4596 63.2744 26.8115C63.2744 27.1733 63.5436 27.5722 64.0844 27.5722H66.1674C68.0942 27.5722 68.9302 28.6567 68.9302 30.0769C68.9302 31.6037 67.9986 32.8542 66.0625 32.8542H61.3765Z" fill="#016FD0"/>
<path d="M69.4463 32.8542V30.9596H73.8466C74.4977 30.9596 74.7796 30.6105 74.7796 30.2276C74.7796 29.8607 74.4986 29.4898 73.8466 29.4898H71.8582C70.1297 29.4898 69.1671 28.4449 69.1671 26.8761C69.1671 25.4769 70.0486 24.1275 72.6171 24.1275H76.8987L75.973 26.091H72.2699C71.562 26.091 71.3441 26.4596 71.3441 26.8115C71.3441 27.1733 71.6134 27.5722 72.1542 27.5722H74.2372C76.1639 27.5722 77 28.6567 77 30.0769C77 31.6037 76.0683 32.8542 74.1323 32.8542H69.4463Z" fill="#016FD0"/>
</svg>
