<svg width="84" height="58" viewBox="0 0 84 58" fill="none" xmlns="http://www.w3.org/2000/svg">
<path d="M20.7089 6.99506H38.1765C40.6261 6.99506 42.1364 8.99929 41.5673 11.4575L33.4296 46.5462C32.8587 48.9966 30.4148 50.9951 27.9787 50.9951H10.5073C8.06351 50.9951 6.5513 48.9966 7.11838 46.5462L15.2523 11.4575C15.8232 8.99929 18.2651 6.99506 20.7089 6.99506Z" fill="#ED171F"/>
<path d="M36.7298 6.99506H56.8167C59.2567 6.99506 58.1572 8.99929 57.5825 11.4575L49.4466 46.5462C48.8796 48.9966 49.057 50.9951 46.6132 50.9951H26.5282C24.0786 50.9951 22.5664 48.9966 23.1393 46.5462L31.2693 11.4575C31.846 8.99929 34.2821 6.99506 36.7298 6.99506Z" fill="#082F67"/>
<path d="M56.022 6.99506H73.4876C75.9314 6.99506 77.4514 8.99929 76.8785 11.4575L68.7408 46.5462C68.1698 48.9966 65.7241 50.9951 63.2822 50.9951H45.8185C43.3766 50.9951 41.8605 48.9966 42.4315 46.5462L50.5692 11.4575C51.1382 8.99929 53.5801 6.99506 56.022 6.99506Z" fill="#006A65"/>
<path d="M23.9513 20.6056C22.0726 20.625 21.5248 20.6056 21.3455 20.5649C21.2722 20.885 20.0049 26.7599 20.0049 26.7599C19.731 27.9512 19.5285 28.801 18.8592 29.3385C18.4734 29.6605 18.0279 29.8196 17.509 29.8196C16.6796 29.8196 16.1955 29.4025 16.1087 28.609L16.101 28.3451C16.101 28.3451 16.3498 26.7522 16.3556 26.7425C16.3556 26.7425 17.6787 21.3914 17.9179 20.6852C17.9237 20.6425 17.9314 20.6289 17.9411 20.6095C15.3487 20.6328 14.8877 20.6095 14.8588 20.5687C14.8472 20.6211 14.772 20.9548 14.772 20.9548L13.4179 26.9792L13.2984 27.4972L13.0765 29.1677C13.0765 29.6625 13.173 30.0641 13.3659 30.4114C13.9927 31.5037 15.7538 31.659 16.7529 31.659C18.0375 31.659 19.2353 31.3873 20.0512 30.8829C21.467 30.0447 21.8412 28.7331 22.1652 27.5671L22.3234 26.9656C22.3234 26.9656 23.6948 21.4088 23.932 20.6852C23.932 20.6425 23.9397 20.6289 23.9513 20.6095M28.6133 25.0894C28.2835 25.0894 27.6797 25.1709 27.1377 25.4387C26.9371 25.5434 26.7481 25.654 26.5552 25.7743L26.7288 25.1263L26.6343 25.0176C25.4867 25.2505 25.2263 25.2893 24.1693 25.4367L24.0844 25.4969C23.9513 26.5213 23.8529 27.2935 23.3881 29.3171C23.2126 30.0505 23.0293 30.8014 22.8499 31.5484L22.8962 31.6415C23.9976 31.5891 24.3197 31.5891 25.2629 31.5988L25.3439 31.5173C25.4577 30.8984 25.477 30.7568 25.7471 29.5015C25.8666 28.9039 26.1251 27.6 26.2543 27.1325C26.4954 27.0257 26.7211 26.9249 26.9487 26.9249C27.4791 26.9249 27.4116 27.3827 27.3962 27.5729C27.3769 27.8814 27.1763 28.8961 26.9776 29.7692L26.8503 30.3241C26.7578 30.7451 26.6555 31.1487 26.563 31.5658L26.6054 31.6415C27.6759 31.5891 27.9961 31.5891 28.9161 31.5988L29.0222 31.5173C29.1881 30.553 29.2402 30.2931 29.5334 28.8883L29.6819 28.2423C29.9693 26.9753 30.112 26.337 29.894 25.8151C29.6645 25.2291 29.1129 25.0875 28.6114 25.0875M33.8096 26.4107C33.2425 26.5213 32.8799 26.5873 32.523 26.6474C32.1643 26.7017 31.8152 26.7522 31.2597 26.8278L31.2172 26.8686L31.1806 26.8996C31.1227 27.3148 31.0841 27.668 31.007 28.089C30.9318 28.5216 30.8372 29.0164 30.6772 29.7207C30.5518 30.262 30.4881 30.4502 30.4168 30.6404C30.3493 30.8324 30.2721 31.0206 30.1351 31.5484L30.1969 31.6415C30.7099 31.6163 31.0417 31.5988 31.3889 31.5949C31.7361 31.5891 32.0929 31.5949 32.6465 31.5988L32.6966 31.5658L32.7468 31.5154C32.8297 31.0342 32.8374 30.9081 32.8876 30.6695C32.9358 30.4192 33.0188 30.0738 33.2251 29.1483C33.3197 28.704 33.4335 28.2752 33.5338 27.8309C33.6418 27.3808 33.7459 26.9462 33.8482 26.5077L33.8308 26.4631L33.8077 26.4088L33.8096 26.4107ZM38.4542 25.1263C37.9276 25.1263 36.6739 25.1806 35.6902 26.0944C34.9939 26.7405 34.6679 27.633 34.4654 28.4809C34.2706 29.354 34.0372 30.9159 35.4684 31.5018C35.9159 31.6881 36.5485 31.7404 36.9555 31.7404C38.0086 31.7404 39.083 31.4494 39.8854 30.588C40.5142 29.8914 40.7958 28.8592 40.8903 28.4246C41.2163 27.0025 40.9713 26.3447 40.655 25.9392C40.1689 25.3281 39.3318 25.1263 38.4542 25.1263ZM38.4889 28.3257C38.4465 28.5566 38.2382 29.4491 37.9546 29.8274C37.7618 30.1087 37.5264 30.2775 37.2641 30.2775C37.1928 30.2775 36.7395 30.2775 36.7318 29.6023C36.7221 29.2686 36.7916 28.9233 36.8822 28.5488C37.1156 27.4739 37.4107 26.5717 38.1379 26.5717C38.7069 26.5717 38.7435 27.2489 38.4909 28.3257M63.448 31.6163C63.6081 30.6636 63.7644 29.7362 64.1829 27.9027C64.3797 27.0296 64.5918 26.1546 64.804 25.2893L64.7654 25.1923C63.6197 25.4018 63.3169 25.4484 62.2194 25.6113L62.1306 25.6754C62.1191 25.7627 62.1075 25.848 62.0979 25.9315C61.9262 25.6521 61.6735 25.4134 61.2877 25.264C60.8055 25.0778 59.6502 25.3319 58.6665 26.2341C57.9779 26.8764 57.6403 27.763 57.4455 28.609C57.2488 29.4646 57.0135 31.0284 58.4466 31.5891C58.8979 31.7793 59.3088 31.8355 59.7138 31.82C60.1478 31.7967 60.5529 31.5775 60.9271 31.2612C60.8923 31.3912 60.8595 31.5193 60.8248 31.6493L60.8923 31.7288C61.9204 31.6881 62.2348 31.6881 63.3458 31.69L63.448 31.6163ZM61.7642 27.8891C61.7256 28.0676 61.6832 28.2558 61.6349 28.4693C61.5636 28.7816 61.4826 29.0921 61.4054 29.4025C61.3283 29.614 61.2376 29.8119 61.1373 29.9438C60.9425 30.2116 60.5008 30.3765 60.2404 30.3765C60.169 30.3765 59.7235 30.3765 59.7061 29.7091C59.7022 29.385 59.7717 29.0416 59.8508 28.6633C60.0957 27.6156 60.3793 26.7153 61.1103 26.7153C61.5732 26.7153 61.8143 27.148 61.7622 27.8891M46.862 25.0875C46.5322 25.0875 45.9265 25.169 45.3864 25.4367C45.1936 25.5415 44.9968 25.6521 44.8078 25.7724L44.9814 25.1243L44.8869 25.0157C43.7354 25.2485 43.4846 25.2873 42.4199 25.4348L42.337 25.4949C42.2077 26.5194 42.1016 27.2916 41.6426 29.3152C41.469 30.0486 41.2935 30.7994 41.1064 31.5464L41.1604 31.6396C42.2444 31.5872 42.5742 31.5872 43.5135 31.5969L43.6003 31.5154C43.7141 30.8965 43.7334 30.7548 43.9919 29.4995C44.1192 28.9019 44.3854 27.5981 44.5146 27.1305C44.748 27.0238 44.9795 26.9229 45.2128 26.9229C45.7298 26.9229 45.6719 27.3808 45.6526 27.5709C45.6275 27.8794 45.4385 28.8942 45.236 29.7673L45.1087 30.3222C45.0084 30.7432 44.9062 31.1467 44.8155 31.5639L44.8541 31.6396C45.9342 31.5872 46.2544 31.5872 47.1687 31.5969L47.2825 31.5154C47.4445 30.5511 47.4869 30.2911 47.7878 28.8864L47.9267 28.2403C48.2238 26.9734 48.3665 26.335 48.1505 25.8131C47.9132 25.2272 47.3577 25.0855 46.862 25.0855M58.923 23.7972C58.9982 23.5023 59.0484 23.1473 59.0484 22.798C59.0484 22.3285 58.9596 21.8842 58.6935 21.5233C58.0126 20.5746 56.6798 20.5629 55.1213 20.5552L54.3613 20.5629C52.3746 20.5862 51.5857 20.5746 51.252 20.5319C51.225 20.6793 51.1652 20.9413 51.1652 20.9413L50.4593 24.259C50.4593 24.259 48.7619 31.3 48.6809 31.6299C50.4091 31.6105 51.1247 31.6105 51.414 31.6415C51.4893 31.3097 51.8905 29.3385 51.8905 29.3385C51.8905 29.3385 52.2319 27.9008 52.2512 27.8484C52.2512 27.8484 52.3669 27.7009 52.4749 27.6369H52.6331C54.1241 27.6369 55.8137 27.6369 57.1408 26.6668C58.0338 25.9936 58.6472 25.0021 58.9211 23.7992M56.1146 24.0048C55.9507 24.7382 55.48 25.361 54.8724 25.654C54.3613 25.9101 53.7499 25.9315 53.1153 25.9315H52.7025L52.7334 25.7704C52.7334 25.7704 53.4933 22.4624 53.4895 22.4682L53.5126 22.3033L53.528 22.1714L53.8289 22.2005C53.8289 22.2005 55.3797 22.3324 55.4202 22.3324C56.0336 22.5749 56.2882 23.1977 56.1127 24.0048M72.4133 25.1806L72.3265 25.0797C71.1904 25.3125 70.984 25.3494 69.9424 25.4852L69.8672 25.559C69.8633 25.5706 69.8633 25.59 69.8556 25.6075L69.8518 25.5881C69.0725 27.3924 69.1014 26.9986 68.4688 28.4149C68.4572 28.3528 68.4572 28.3082 68.4572 28.2442L68.301 25.1787L68.2026 25.0778C67.0164 25.3106 66.9836 25.3475 65.8899 25.4833L65.7974 25.557C65.7974 25.5978 65.7896 25.6404 65.7858 25.6773L65.7954 25.6967C65.9247 26.3991 65.8996 26.2419 66.0307 27.3536C66.0983 27.8969 66.1851 28.4499 66.2487 28.9834C66.3548 29.8876 66.4165 30.3299 66.5496 31.7075C65.807 32.9279 65.6315 33.3974 64.9274 34.4742V34.482L64.424 35.2833C64.3623 35.3667 64.3122 35.421 64.2369 35.4424C64.1578 35.4831 64.0518 35.4986 63.911 35.4986H63.6294L63.2166 36.8762L64.6381 36.8975C65.4733 36.8936 65.996 36.5037 66.2776 35.9779L67.1688 34.4432H67.1572L67.2478 34.3345C67.8458 33.0365 72.4113 25.1748 72.4113 25.1748M33.8192 24.6257C33.2984 24.3133 32.4035 24.4103 31.7901 24.8372C31.1767 25.2563 31.1015 25.8383 31.6184 26.1488C32.1315 26.4553 33.0438 26.3661 33.6514 25.9373C34.2551 25.5085 34.3381 24.9206 33.8212 24.6238" fill="white"/>
</svg>
